<!DOCTYPE svg PUBLIC "-//W3C//DTD SVG 20010904//EN" "http://www.w3.org/TR/2001/REC-SVG-20010904/DTD/svg10.dtd">
<svg version="1.0" xmlns="http://www.w3.org/2000/svg" width="1050px" height="979px" viewBox="0 0 10500 9790" preserveAspectRatio="xMidYMid meet">
<g id="layer101" stroke="none">
 <path d="M5227 9688 c-7 -140 -31 -208 -148 -435 -54 -105 -113 -234 -131 -285 -29 -84 -32 -104 -32 -208 0 -99 4 -124 26 -182 33 -86 80 -165 141 -233 26 -29 47 -55 47 -57 0 -8 -125 -104 -200 -154 -222 -149 -405 -215 -594 -215 -173 0 -284 44 -367 143 -29 35 -55 64 -58 66 -4 1 -47 -33 -97 -75 -123 -107 -261 -217 -377 -301 l-97 -70 -73 20 c-108 31 -220 73 -339 130 l-107 51 -88 -66 c-89 -66 -247 -164 -302 -187 -27 -11 -53 -7 -218 34 -445 108 -735 129 -966 71 -214 -55 -381 -204 -467 -417 -33 -85 -36 -98 -18 -116 20 -20 41 -13 78 24 78 79 108 84 570 94 507 11 694 39 986 149 59 23 113 41 120 41 18 0 327 -100 337 -109 17 -17 -336 -168 -568 -244 -248 -81 -463 -129 -920 -207 -378 -65 -536 -105 -690 -175 -274 -124 -494 -374 -589 -669 -65 -200 -81 -299 -80 -501 0 -220 7 -260 121 -705 47 -184 101 -398 120 -475 94 -390 98 -698 10 -955 -44 -128 -96 -218 -174 -301 -53 -56 -63 -72 -53 -83 25 -31 53 -23 113 31 114 104 263 175 447 214 84 18 138 22 270 22 243 0 390 -29 980 -191 140 -39 267 -73 281 -76 15 -3 37 -22 52 -45 49 -74 181 -226 287 -330 243 -239 491 -427 1130 -854 256 -171 534 -360 618 -419 530 -378 823 -687 959 -1013 38 -89 38 -92 43 -255 l5 -165 30 0 30 0 5 150 c6 146 7 153 46 250 110 276 323 530 686 822 176 141 367 275 898 630 256 171 537 364 625 430 323 240 559 456 713 653 117 149 118 150 139 150 11 0 141 34 289 75 563 157 713 187 959 188 139 0 189 -4 274 -22 188 -40 329 -107 445 -211 63 -57 91 -65 117 -34 10 13 3 25 -43 72 -107 108 -177 247 -221 436 -29 125 -31 450 -3 601 25 138 83 371 162 647 144 510 158 640 103 926 -28 146 -113 402 -164 497 -98 180 -223 322 -370 420 -201 134 -367 184 -1005 305 -352 67 -730 168 -908 243 l-33 14 146 62 147 62 61 -20 c97 -32 293 -77 397 -92 144 -21 425 -16 600 10 79 11 165 21 190 21 58 -1 122 -30 151 -69 25 -35 40 -38 59 -16 16 20 -2 62 -65 150 -91 128 -217 234 -373 313 -151 77 -175 83 -337 79 -163 -4 -159 -3 -545 -165 l-235 -98 -65 27 c-97 40 -206 93 -286 138 l-71 40 -45 -28 c-86 -55 -257 -151 -268 -151 -15 0 -228 134 -348 218 -194 138 -422 323 -518 420 -51 51 -54 52 -96 47 -23 -4 -59 -13 -78 -21 -19 -7 -203 -61 -408 -120 -329 -93 -375 -104 -390 -92 -9 8 -79 68 -156 134 -76 65 -144 123 -150 128 -8 6 10 29 57 75 159 153 237 312 237 483 0 142 -39 248 -208 561 l-69 128 -6 112 c-8 141 -17 172 -45 171 -15 0 -22 5 -22 18 0 10 -4 18 -9 18 -4 0 -11 -46 -14 -102z m152 -482 c40 -55 88 -130 105 -166 84 -178 18 -381 -196 -605 -50 -52 -94 -95 -98 -95 -4 0 -34 32 -65 71 -108 133 -146 247 -125 367 16 96 54 177 158 345 51 81 100 163 110 183 14 31 18 34 27 19 5 -10 43 -63 84 -119z m-3 -1159 l136 -132 -485 -138 c-347 -98 -518 -142 -603 -154 -215 -30 -795 -20 -861 16 -8 4 49 51 145 119 86 62 175 126 198 143 l40 30 48 -21 c140 -59 374 -86 548 -61 184 27 429 134 594 261 49 37 92 68 96 69 5 1 69 -59 144 -132z m1218 -41 c145 -126 488 -370 698 -496 l77 -46 -98 -48 -97 -48 -51 31 c-143 88 -376 174 -574 212 -92 18 -160 23 -356 26 l-242 4 -102 104 -101 104 39 10 c21 6 191 56 378 110 187 55 344 100 348 100 5 1 41 -28 81 -63z m-890 -297 l80 -94 -45 -8 c-142 -27 -292 -65 -426 -108 -154 -50 -409 -151 -427 -169 -7 -7 34 -10 121 -10 149 0 257 -13 348 -41 65 -20 129 -57 128 -74 0 -5 -88 -48 -194 -93 l-194 -84 -70 18 c-38 9 -75 19 -82 21 -8 3 -13 -13 -15 -52 l-3 -57 -130 -55 c-146 -62 -209 -73 -307 -54 -69 14 -180 56 -244 92 l-41 24 116 1 c180 1 295 40 392 131 53 49 99 134 99 182 0 49 -18 45 -45 -9 -49 -97 -141 -163 -263 -189 -68 -14 -267 -14 -388 0 -94 11 -144 7 -144 -11 0 -29 201 -175 324 -236 214 -105 383 -118 569 -45 l71 28 75 -23 c42 -13 77 -24 79 -24 1 0 2 26 2 58 l0 57 310 130 c170 72 310 135 310 141 0 42 -176 137 -326 178 l-89 23 60 27 c112 50 421 146 472 146 15 0 78 -129 94 -193 10 -40 15 -48 32 -45 37 5 60 62 60 142 -1 39 -6 83 -12 98 l-10 26 76 8 c42 3 153 4 247 1 187 -6 305 -26 461 -78 93 -31 287 -122 305 -144 7 -9 -16 -20 -93 -44 -126 -40 -242 -50 -307 -28 -24 9 -47 14 -50 11 -10 -11 59 -63 97 -73 81 -23 225 -5 363 45 37 13 74 24 82 24 8 0 52 -35 98 -77 l82 -78 -216 -92 c-303 -131 -355 -142 -441 -99 -36 19 -53 22 -67 15 -22 -12 -22 -14 -4 -42 20 -30 44 -128 52 -212 7 -68 7 -70 -12 -55 -70 53 -139 113 -204 177 l-75 73 -75 -26 c-64 -23 -86 -26 -150 -21 -72 5 -195 42 -265 80 l-30 16 70 1 c180 1 336 68 421 178 41 54 77 148 69 179 -8 33 -19 28 -40 -19 -40 -92 -131 -162 -252 -193 -70 -18 -274 -20 -409 -3 -74 9 -100 9 -122 -1 l-27 -13 50 -44 c72 -64 213 -157 299 -198 115 -55 215 -79 328 -80 88 -1 99 1 121 23 l25 23 7 -46 c4 -26 13 -53 21 -60 15 -16 42 -115 45 -171 4 -75 -1 -96 -27 -122 -22 -22 -32 -25 -70 -20 -24 2 -44 1 -44 -3 0 -8 74 -62 117 -84 47 -24 71 -20 109 18 30 30 34 40 34 87 0 32 -11 83 -26 124 -13 39 -27 77 -30 86 -4 12 22 3 88 -32 86 -44 176 -75 187 -64 8 9 -41 192 -73 271 l-32 81 45 -14 c65 -19 194 -16 276 6 39 11 146 52 239 90 93 39 174 71 181 71 32 0 193 -288 241 -430 10 -30 21 -59 25 -64 4 -5 22 5 38 22 28 27 31 37 31 90 0 33 -7 79 -15 102 -18 50 -107 187 -175 269 l-48 57 172 72 171 72 81 -34 c247 -104 499 -181 924 -281 442 -104 601 -164 736 -274 154 -127 268 -343 321 -608 13 -64 17 -135 17 -258 -1 -232 -23 -337 -165 -757 -141 -420 -159 -496 -166 -703 -6 -171 7 -272 47 -390 11 -32 20 -62 20 -66 0 -5 -19 -1 -42 7 -203 71 -429 78 -675 19 -79 -19 -300 -86 -368 -111 -6 -3 -10 48 -11 138 -1 162 -24 306 -74 453 -16 49 -28 90 -26 92 1 2 41 8 87 14 220 28 456 -32 580 -148 47 -44 50 -45 68 -29 24 22 19 38 -32 96 -113 130 -167 360 -138 585 7 50 34 187 61 305 79 345 93 437 94 595 1 170 -12 225 -88 380 -83 169 -199 284 -380 381 -179 95 -356 138 -576 138 -129 0 -301 -21 -332 -40 -7 -5 17 -64 27 -64 2 0 41 9 87 21 117 29 310 36 408 15 221 -47 390 -208 463 -441 72 -230 61 -388 -52 -753 -73 -236 -84 -300 -79 -451 4 -92 11 -144 27 -194 12 -38 21 -70 19 -72 -2 -2 -30 5 -63 16 -79 26 -214 40 -300 31 l-70 -7 -53 85 c-103 164 -262 370 -424 551 -84 93 -93 100 -105 83 -7 -10 -13 -14 -13 -9 0 4 -3 6 -6 3 -3 -4 22 -41 55 -83 184 -231 319 -496 367 -722 19 -92 22 -271 5 -360 -78 -410 -415 -778 -1113 -1216 -76 -48 -294 -178 -485 -291 -411 -241 -475 -280 -653 -400 -320 -216 -531 -421 -615 -599 l-23 -48 -37 67 c-139 254 -412 479 -1013 836 -809 480 -939 562 -1133 708 -195 148 -377 320 -481 455 -357 467 -318 966 122 1541 44 58 80 108 80 111 0 4 -3 3 -7 0 -3 -4 -11 1 -18 10 -10 14 -24 2 -100 -83 -170 -191 -322 -388 -429 -559 l-51 -80 -70 7 c-85 9 -221 -5 -301 -31 -32 -11 -60 -18 -62 -16 -2 1 6 31 18 66 30 92 41 212 29 317 -12 103 -24 155 -89 367 -82 265 -101 402 -80 555 45 327 229 549 500 606 99 21 291 14 410 -16 l84 -21 18 23 c10 13 16 28 15 33 -12 39 -392 64 -547 36 -246 -44 -472 -159 -620 -318 -53 -57 -82 -100 -124 -186 -77 -157 -90 -212 -90 -382 1 -161 9 -216 97 -600 60 -265 61 -273 61 -420 1 -113 -4 -166 -17 -215 -25 -93 -79 -202 -125 -252 -51 -56 -57 -74 -30 -92 20 -14 24 -12 71 30 128 115 359 173 576 145 46 -6 86 -12 87 -14 2 -2 -10 -44 -26 -93 -52 -163 -72 -284 -74 -446 0 -82 -1 -148 -1 -148 -1 0 -59 20 -131 44 -386 129 -659 144 -922 52 -23 -8 -42 -12 -42 -7 0 4 9 34 20 66 40 118 53 219 47 390 -7 205 -26 288 -157 675 -101 303 -131 405 -156 545 -67 374 29 786 236 1018 142 158 338 243 770 337 621 134 965 242 1332 417 l138 66 125 -37 c171 -51 232 -65 328 -72 125 -10 217 24 217 80 0 20 -6 21 -113 22 -107 1 -216 16 -369 51 l-70 16 28 17 c16 9 86 51 156 92 l127 75 128 -23 c276 -48 378 -58 643 -58 206 -1 274 3 353 17 54 10 306 79 560 152 254 74 467 133 472 131 6 -1 46 -45 89 -97z m-2617 -32 c90 -23 162 -46 160 -51 -2 -6 -65 -47 -140 -92 l-137 -83 -63 18 c-246 71 -297 86 -297 91 0 3 28 20 63 37 34 18 96 55 137 82 48 32 82 48 95 45 11 -3 93 -24 182 -47z m-1057 -41 c179 -35 277 -61 263 -69 -31 -19 -213 -79 -324 -106 -171 -41 -307 -60 -489 -67 -137 -6 -333 6 -348 20 -8 9 67 104 108 136 52 41 154 88 231 105 104 24 390 14 559 -19z m7108 8 c136 -28 233 -78 283 -147 l31 -42 -74 -23 c-200 -61 -443 -89 -633 -73 -135 12 -347 49 -340 60 8 14 502 221 546 230 67 13 103 12 187 -5z m-1252 -110 c54 -26 123 -57 152 -69 l53 -22 -113 -48 c-62 -26 -126 -53 -143 -60 -28 -12 -38 -9 -164 54 l-134 68 114 61 c63 34 119 62 125 62 6 0 56 -21 110 -46z m-306 -186 c66 -35 120 -65 120 -68 0 -3 -58 -29 -128 -59 -114 -48 -129 -52 -148 -40 -32 21 -164 132 -164 139 1 7 172 88 188 89 7 1 67 -27 132 -61z"/>
 <path d="M3966 7265 c-47 -91 -126 -150 -243 -180 -72 -19 -303 -19 -423 -1 -82 13 -130 7 -130 -16 0 -14 136 -120 231 -180 158 -100 344 -156 479 -145 55 4 68 9 88 33 19 22 23 35 19 67 -3 21 -8 41 -11 44 -3 3 -29 -4 -58 -17 -108 -47 -248 -34 -393 35 l-70 33 75 1 c159 3 301 53 383 136 72 74 121 192 95 228 -12 15 -16 11 -42 -38z"/>
 <path d="M2949 6949 c-17 -32 -4 -102 33 -182 27 -59 43 -77 112 -133 94 -75 204 -134 252 -134 52 0 70 35 55 103 -22 98 -68 171 -151 237 -142 114 -273 161 -301 109z m218 -115 c59 -64 95 -140 91 -195 -2 -23 -8 -44 -14 -46 -19 -6 -70 44 -114 110 -33 52 -40 70 -40 113 0 80 15 84 77 18z"/>
 <path d="M2752 6609 l3 -82 79 -33 c44 -19 81 -32 82 -31 2 1 0 41 -4 87 l-7 84 -60 23 c-106 41 -96 46 -93 -48z"/>
 <path d="M4163 6234 c-98 -111 -171 -215 -218 -309 -62 -126 -78 -195 -73 -325 3 -104 4 -110 50 -201 95 -190 265 -334 718 -604 403 -240 580 -399 580 -521 0 -52 23 -77 45 -48 8 10 15 35 15 55 0 68 106 195 249 299 70 52 261 173 483 308 199 121 313 206 418 311 147 148 203 266 202 431 0 156 -61 307 -196 484 -90 120 -159 188 -176 177 -11 -8 -12 -14 -5 -24 68 -95 101 -148 125 -195 117 -240 22 -448 -305 -666 -44 -29 -183 -113 -310 -186 -126 -73 -265 -157 -308 -188 -74 -53 -171 -146 -195 -187 l-12 -20 -12 20 c-24 42 -133 146 -202 193 -39 27 -174 109 -301 182 -126 73 -268 158 -315 190 -379 258 -442 490 -216 798 50 68 53 77 31 86 -9 3 -35 -18 -72 -60z"/>
 <path d="M3448 5912 c-127 -141 -174 -201 -253 -316 -338 -499 -310 -931 85 -1327 199 -200 387 -329 1028 -708 526 -311 774 -513 875 -713 24 -47 27 -64 27 -154 0 -109 9 -132 50 -119 18 6 20 14 20 102 0 87 3 101 31 158 17 35 59 98 94 141 142 177 350 328 895 649 506 298 729 454 915 640 217 217 308 397 322 635 17 317 -144 643 -525 1059 -55 61 -60 64 -80 50 -20 -15 -20 -16 35 -84 199 -247 281 -478 239 -675 -32 -153 -138 -320 -283 -447 -181 -159 -356 -271 -823 -528 -360 -198 -523 -302 -656 -414 -71 -61 -153 -156 -175 -205 -7 -14 -15 -26 -18 -26 -3 0 -17 21 -31 47 -32 61 -145 175 -246 250 -127 93 -263 176 -609 368 -176 98 -374 212 -440 254 -446 282 -639 525 -638 806 0 181 78 361 246 569 50 63 54 71 39 83 -9 7 -19 12 -22 13 -3 0 -48 -48 -102 -108z"/>
 </g>

</svg>