<?xml version="1.0" encoding="UTF-8" standalone="no"?><!DOCTYPE svg PUBLIC "-//W3C//DTD SVG 1.1//EN" "http://www.w3.org/Graphics/SVG/1.1/DTD/svg11.dtd"><svg width="100%" height="100%" viewBox="0 0 900 900" version="1.1" xmlns="http://www.w3.org/2000/svg" xmlns:xlink="http://www.w3.org/1999/xlink" xml:space="preserve" xmlns:serif="http://www.serif.com/" style="fill-rule:evenodd;clip-rule:evenodd;stroke-linejoin:round;stroke-miterlimit:1.41421;"><path d="M563.144,2.5l0.54,0.002l0.54,0.002l0.539,0.003l0.54,0.004l0.539,0.004l0.539,0.006l0.539,0.006l0.538,0.008l0.539,0.008l0.538,0.009l0.538,0.009l0.538,0.011l0.538,0.012l0.537,0.012l0.537,0.013l0.538,0.014l0.537,0.015l0.536,0.016l0.537,0.017l0.536,0.017l0.537,0.018l0.535,0.019l0.536,0.02l0.536,0.021l0.535,0.022l0.535,0.022l0.535,0.024l0.535,0.024l0.535,0.025l0.534,0.026l0.534,0.026l0.534,0.028l0.534,0.028l0.533,0.029l0.534,0.03l0.533,0.031l0.533,0.032l0.533,0.033l0.532,0.033l0.533,0.034l0.546,0.036l1.049,0.072l1.063,0.076l1.062,0.079l1.061,0.082l1.06,0.086l1.059,0.089l1.058,0.093l1.058,0.096l1.057,0.099l1.055,0.102l1.055,0.105l1.054,0.109l1.053,0.112l1.052,0.116l1.051,0.118l1.05,0.122l1.049,0.125l1.049,0.129l1.047,0.131l1.046,0.135l1.046,0.138l1.044,0.142l1.043,0.144l1.043,0.148l1.041,0.151l1.04,0.154l1.04,0.157l1.038,0.161l1.038,0.164l1.036,0.166l1.035,0.17l1.035,0.174l1.033,0.176l1.032,0.18l1.031,0.182l1.031,0.186l1.028,0.189l1.028,0.192l1.027,0.196l1.026,0.198l1.025,0.202l1.024,0.205l1.022,0.207l1.021,0.211l1.021,0.214l1.019,0.217l1.018,0.22l1.017,0.224l1.016,0.226l1.014,0.23l1.013,0.232l1.013,0.236l1.011,0.238l1.01,0.242l1.009,0.245l1.007,0.248l1.007,0.25l1.005,0.254l1.004,0.257l1.003,0.26l1.001,0.263l1.001,0.266l0.999,0.269l0.998,0.272l0.997,0.275l0.995,0.278l0.995,0.281l0.993,0.284l0.991,0.287l0.991,0.29l0.989,0.293l0.988,0.296l0.987,0.298l0.985,0.302l0.985,0.305l0.982,0.308l0.982,0.31l0.98,0.314l0.979,0.316l0.978,0.319l0.976,0.323l0.974,0.325l0.974,0.328l0.973,0.331l0.971,0.334l0.969,0.337l0.969,0.339l0.966,0.343l0.966,0.345l0.964,0.348l0.963,0.351l0.961,0.354l0.96,0.357l0.958,0.36l0.958,0.362l0.956,0.366l0.954,0.368l0.953,0.371l0.951,0.374l0.95,0.376l0.949,0.38l0.948,0.382l0.945,0.385l0.945,0.388l0.943,0.391l0.941,0.393l0.94,0.396l0.939,0.399l0.937,0.402l0.935,0.404l0.935,0.408l0.932,0.41l0.931,0.412l0.93,0.416l0.928,0.418l0.926,0.421l0.925,0.423l0.924,0.427l0.922,0.429l0.92,0.432l0.919,0.434l0.918,0.437l0.916,0.44l0.914,0.443l0.913,0.445l0.911,0.448l0.91,0.45l0.908,0.454l0.906,0.455l0.905,0.459l0.904,0.462l0.901,0.463l0.9,0.467l0.899,0.469l0.897,0.471l0.895,0.475l0.894,0.477l0.892,0.48l0.89,0.482l0.889,0.485l0.887,0.487l0.886,0.49l0.884,0.493l0.881,0.495l0.881,0.497l0.879,0.501l0.877,0.503l0.876,0.505l0.873,0.508l0.872,0.511l0.871,0.513l0.869,0.516l0.867,0.517l0.865,0.521l0.864,0.523l0.862,0.526l0.86,0.529l0.859,0.53l0.856,0.533l0.855,0.536l0.853,0.538l0.852,0.541l0.85,0.544l0.848,0.545l0.846,0.548l0.844,0.551l0.843,0.553l0.841,0.555l0.84,0.559l0.837,0.56l0.835,0.563l0.834,0.565l0.832,0.568l0.831,0.57l0.828,0.573l0.826,0.574l0.825,0.578l0.823,0.58l0.821,0.582l0.819,0.585l0.818,0.587l0.815,0.589l0.814,0.592l0.812,0.594l0.81,0.597l0.808,0.598l0.806,0.601l0.804,0.604l0.803,0.606l0.8,0.608l0.799,0.611l0.797,0.613l0.794,0.615l0.794,0.618l0.791,0.62l0.789,0.622l0.787,0.624l0.786,0.627l0.783,0.629l0.781,0.632l0.78,0.633l0.778,0.637l0.775,0.638l0.774,0.641l0.772,0.643l0.769,0.644l0.768,0.647l0.766,0.65l0.764,0.652l0.762,0.655l0.759,0.655l0.758,0.659l0.756,0.661l0.754,0.663l0.752,0.665l0.75,0.668l0.748,0.669l0.745,0.672l0.744,0.674l0.742,0.676l0.739,0.679l0.738,0.68l0.736,0.683l0.733,0.685l0.732,0.687l0.729,0.689l0.727,0.692l0.726,0.694l0.723,0.695l0.721,0.698l0.719,0.7l0.717,0.702l0.716,0.705l0.711,0.706l0.711,0.708l0.709,0.711l0.707,0.713l0.704,0.715l0.702,0.717l0.699,0.718l0.698,0.721l0.696,0.724l0.694,0.725l0.692,0.728l0.689,0.729l0.687,0.732l0.685,0.733l0.682,0.735l0.681,0.738l0.679,0.74l0.676,0.742l0.673,0.743l0.672,0.746l0.67,0.748l0.668,0.75l0.665,0.752l0.662,0.753l0.662,0.757l0.658,0.758l0.657,0.759l0.653,0.762l0.653,0.764l0.649,0.766l0.647,0.767l0.645,0.77l0.643,0.772l0.641,0.774l0.638,0.775l0.636,0.777l0.634,0.781l0.631,0.781l0.629,0.783l0.628,0.786l0.623,0.786l0.623,0.79l0.62,0.791l0.617,0.793l0.616,0.795l0.613,0.797l0.61,0.798l0.609,0.801l0.606,0.803l0.603,0.804l0.602,0.806l0.598,0.809l0.596,0.809l0.595,0.812l0.592,0.814l0.589,0.815l0.587,0.818l0.584,0.818l0.583,0.821l0.58,0.824l0.577,0.825l0.575,0.827l0.573,0.827l0.57,0.831l0.568,0.832l0.565,0.833l0.563,0.836l0.561,0.838l0.557,0.839l0.556,0.84l0.553,0.843l0.55,0.845l0.549,0.847l0.546,0.847l0.543,0.85l0.541,0.852l0.537,0.852l0.536,0.855l0.534,0.857l0.53,0.859l0.529,0.86l0.525,0.862l0.523,0.863l0.521,0.866l0.518,0.867l0.516,0.869l0.513,0.871l0.51,0.871l0.509,0.874l0.505,0.876l0.503,0.877l0.5,0.879l0.498,0.88l0.495,0.882l0.492,0.884l0.491,0.886l0.487,0.887l0.485,0.889l0.482,0.889l0.479,0.892l0.478,0.895l0.474,0.896l0.472,0.896l0.469,0.899l0.467,0.9l0.463,0.901l0.462,0.904l0.458,0.904l0.456,0.907l0.454,0.909l0.45,0.908l0.448,0.912l0.445,0.912l0.443,0.915l0.44,0.916l0.436,0.917l0.435,0.919l0.432,0.921l0.429,0.922l0.426,0.923l0.424,0.926l0.421,0.926l0.418,0.928l0.416,0.929l0.412,0.932l0.41,0.932l0.407,0.934l0.405,0.936l0.402,0.938l0.399,0.938l0.396,0.939l0.393,0.941l0.391,0.944l0.388,0.944l0.385,0.946l0.382,0.948l0.38,0.949l0.376,0.949l0.374,0.951l0.371,0.954l0.368,0.954l0.365,0.956l0.363,0.957l0.36,0.959l0.356,0.959l0.354,0.962l0.352,0.963l0.348,0.964l0.345,0.965l0.343,0.967l0.339,0.969l0.337,0.969l0.334,0.971l0.331,0.973l0.328,0.974l0.325,0.974l0.322,0.977l0.319,0.976l0.317,0.98l0.314,0.98l0.31,0.981l0.308,0.984l0.304,0.983l0.302,0.986l0.299,0.987l0.296,0.988l0.293,0.989l0.29,0.99l0.287,0.992l0.284,0.994l0.28,0.993l0.279,0.996l0.274,0.996l0.272,0.998l0.27,1l0.266,1.001l0.262,1.001l0.26,1.003l0.258,1.005l0.253,1.004l0.251,1.006l0.248,1.008l0.245,1.008l0.241,1.011l0.239,1.012l0.236,1.011l0.232,1.013l0.23,1.016l0.226,1.015l0.223,1.017l0.221,1.018l0.217,1.02l0.213,1.019l0.211,1.021l0.208,1.024l0.205,1.023l0.201,1.024l0.199,1.027l0.195,1.027l0.192,1.027l0.189,1.028l0.186,1.031l0.183,1.032l0.18,1.032l0.176,1.033l0.173,1.034l0.17,1.036l0.167,1.036l0.164,1.038l0.16,1.038l0.158,1.038l0.154,1.042l0.151,1.041l0.148,1.042l0.144,1.044l0.141,1.044l0.139,1.046l0.134,1.046l0.132,1.046l0.128,1.05l0.125,1.049l0.122,1.049l0.119,1.052l0.115,1.052l0.113,1.053l0.108,1.054l0.106,1.055l0.102,1.055l0.099,1.057l0.096,1.057l0.092,1.059l0.089,1.059l0.086,1.06l0.083,1.062l0.079,1.061l0.076,1.062l0.072,1.05l0.036,0.547l0.034,0.532l0.033,0.532l0.033,0.532l0.031,0.532l0.031,0.535l0.03,0.535l0.03,0.533l0.028,0.533l0.027,0.533l0.027,0.533l0.026,0.536l0.025,0.536l0.024,0.534l0.023,0.533l0.023,0.537l0.022,0.536l0.02,0.535l0.02,0.534l0.02,0.537l0.018,0.537l0.017,0.535l0.017,0.538l0.016,0.538l0.014,0.535l0.014,0.535l0.014,0.539l0.012,0.54l0.012,0.536l0.01,0.536l0.01,0.541l0.009,0.537l0.008,0.539l0.007,0.539l0.007,0.536l0.005,0.542l0.005,0.537l0.004,0.54l0.003,0.542l0.002,0.537l0.001,0.54l0.001,0.541l-0.001,0.54l-0.001,0.54l-0.002,0.537l-0.003,0.542l-0.004,0.54l-0.005,0.537l-0.005,0.542l-0.007,0.537l-0.007,0.539l-0.008,0.539l-0.009,0.536l-0.01,0.541l-0.01,0.536l-0.012,0.536l-0.012,0.541l-0.014,0.538l-0.014,0.535l-0.014,0.536l-0.016,0.537l-0.017,0.538l-0.017,0.535l-0.018,0.537l-0.02,0.537l-0.02,0.534l-0.02,0.535l-0.022,0.536l-0.023,0.537l-0.023,0.534l-0.024,0.533l-0.025,0.536l-0.026,0.536l-0.027,0.533l-0.027,0.534l-0.028,0.532l-0.03,0.533l-0.03,0.535l-0.031,0.535l-0.031,0.532l-0.033,0.532l-0.033,0.532l-0.034,0.532l-0.036,0.548l-0.072,1.049l-0.076,1.062l-0.079,1.061l-0.083,1.062l-0.086,1.06l-0.089,1.06l-0.092,1.058l-0.096,1.057l-0.099,1.057l-0.102,1.056l-0.106,1.054l-0.108,1.054l-0.113,1.053l-0.115,1.052l-0.119,1.052l-0.122,1.05l-0.125,1.049l-0.128,1.049l-0.132,1.046l-0.134,1.046l-0.139,1.046l-0.141,1.044l-0.144,1.044l-0.148,1.042l-0.151,1.041l-0.154,1.042l-0.158,1.039l-0.16,1.037l-0.164,1.038l-0.167,1.036l-0.17,1.037l-0.173,1.034l-0.176,1.032l-0.18,1.033l-0.183,1.031l-0.186,1.031l-0.189,1.029l-0.192,1.026l-0.195,1.027l-0.199,1.027l-0.201,1.024l-0.205,1.023l-0.208,1.025l-0.211,1.021l-0.213,1.019l-0.217,1.019l-0.221,1.018l-0.223,1.017l-0.226,1.016l-0.23,1.015l-0.232,1.013l-0.236,1.011l-0.239,1.013l-0.241,1.01l-0.245,1.008l-0.248,1.008l-0.251,1.006l-0.253,1.004l-0.258,1.006l-0.26,1.003l-0.262,1.001l-0.266,1l-0.27,1l-0.272,0.998l-0.274,0.997l-0.279,0.995l-0.28,0.994l-0.284,0.993l-0.287,0.992l-0.29,0.99l-0.293,0.989l-0.296,0.988l-0.299,0.987l-0.302,0.986l-0.304,0.983l-0.308,0.984l-0.31,0.981l-0.314,0.98l-0.317,0.98l-0.319,0.977l-0.322,0.976l-0.325,0.975l-0.328,0.973l-0.331,0.973l-0.334,0.971l-0.337,0.97l-0.339,0.968l-0.343,0.967l-0.345,0.965l-0.348,0.964l-0.352,0.964l-0.354,0.961l-0.356,0.959l-0.36,0.959l-0.363,0.958l-0.365,0.955l-0.368,0.954l-0.371,0.954l-0.374,0.952l-0.376,0.949l-0.38,0.949l-0.382,0.947l-0.385,0.946l-0.388,0.944l-0.391,0.944l-0.394,0.941l-0.395,0.939l-0.399,0.938l-0.402,0.938l-0.405,0.936l-0.407,0.934l-0.41,0.933l-0.413,0.931l-0.415,0.93l-0.418,0.927l-0.421,0.926l-0.424,0.926l-0.426,0.924l-0.429,0.922l-0.432,0.92l-0.435,0.919l-0.436,0.917l-0.44,0.916l-0.443,0.915l-0.445,0.913l-0.448,0.911l-0.45,0.909l-0.454,0.908l-0.456,0.907l-0.458,0.905l-0.462,0.904l-0.463,0.9l-0.467,0.901l-0.469,0.898l-0.472,0.897l-0.474,0.896l-0.478,0.894l-0.479,0.892l-0.482,0.889l-0.485,0.889l-0.487,0.888l-0.491,0.886l-0.492,0.883l-0.495,0.882l-0.498,0.88l-0.5,0.879l-0.503,0.878l-0.506,0.876l-0.508,0.874l-0.51,0.87l-0.512,0.871l-0.517,0.87l-0.518,0.867l-0.521,0.865l-0.523,0.863l-0.525,0.862l-0.529,0.861l-0.53,0.858l-0.534,0.857l-0.536,0.855l-0.537,0.853l-0.541,0.851l-0.543,0.85l-0.546,0.848l-0.549,0.847l-0.55,0.844l-0.553,0.843l-0.556,0.841l-0.557,0.838l-0.561,0.838l-0.563,0.837l-0.565,0.832l-0.568,0.832l-0.57,0.831l-0.573,0.828l-0.575,0.827l-0.577,0.824l-0.581,0.824l-0.582,0.821l-0.584,0.818l-0.587,0.818l-0.589,0.815l-0.592,0.814l-0.594,0.812l-0.597,0.81l-0.598,0.808l-0.602,0.806l-0.603,0.804l-0.606,0.803l-0.609,0.801l-0.611,0.799l-0.612,0.796l-0.616,0.796l-0.617,0.792l-0.62,0.792l-0.623,0.789l-0.623,0.786l-0.627,0.786l-0.63,0.784l-0.631,0.781l-0.634,0.78l-0.636,0.777l-0.638,0.776l-0.641,0.773l-0.642,0.772l-0.646,0.77l-0.647,0.767l-0.649,0.766l-0.653,0.765l-0.653,0.761l-0.656,0.76l-0.659,0.757l-0.661,0.757l-0.663,0.754l-0.665,0.752l-0.668,0.749l-0.669,0.748l-0.673,0.747l-0.673,0.743l-0.676,0.741l-0.679,0.74l-0.681,0.738l-0.682,0.735l-0.685,0.734l-0.687,0.731l-0.689,0.729l-0.692,0.728l-0.694,0.726l-0.696,0.723l-0.697,0.721l-0.7,0.719l-0.703,0.717l-0.703,0.714l-0.707,0.713l-0.709,0.712l-0.71,0.707l-0.712,0.706l-0.716,0.705l-0.717,0.702l-0.719,0.7l-0.721,0.699l-0.724,0.695l-0.725,0.694l-0.726,0.691l-0.73,0.689l-0.732,0.688l-0.733,0.684l-0.736,0.683l-0.738,0.681l-0.739,0.678l-0.743,0.677l-0.743,0.674l-0.745,0.671l-0.748,0.67l-0.75,0.667l-0.752,0.665l-0.754,0.663l-0.755,0.661l-0.759,0.659l-0.759,0.656l-0.762,0.654l-0.764,0.652l-0.766,0.65l-0.768,0.647l-0.77,0.645l-0.771,0.643l-0.773,0.64l-0.776,0.639l-0.779,0.636l-0.778,0.633l-0.782,0.632l-0.783,0.629l-0.786,0.627l-0.788,0.625l-0.788,0.621l-0.791,0.62l-0.794,0.618l-0.794,0.615l-0.797,0.614l-0.799,0.61l-0.8,0.608l-0.803,0.606l-0.804,0.604l-0.807,0.601l-0.808,0.599l-0.81,0.596l-0.811,0.594l-0.814,0.592l-0.815,0.59l-0.818,0.587l-0.82,0.585l-0.821,0.582l-0.823,0.58l-0.824,0.577l-0.826,0.574l-0.828,0.573l-0.831,0.571l-0.832,0.567l-0.834,0.566l-0.835,0.562l-0.837,0.56l-0.839,0.558l-0.842,0.557l-0.843,0.553l-0.844,0.55l-0.846,0.548l-0.848,0.546l-0.85,0.543l-0.851,0.541l-0.854,0.538l-0.855,0.536l-0.856,0.533l-0.859,0.531l-0.86,0.528l-0.862,0.526l-0.865,0.524l-0.865,0.52l-0.866,0.518l-0.868,0.515l-0.871,0.513l-0.873,0.512l-0.874,0.508l-0.875,0.504l-0.876,0.503l-0.879,0.501l-0.882,0.498l-0.882,0.495l-0.884,0.493l-0.885,0.489l-0.886,0.487l-0.889,0.485l-0.892,0.483l-0.891,0.479l-0.894,0.477l-0.895,0.475l-0.897,0.471l-0.899,0.47l-0.9,0.466l-0.902,0.464l-0.902,0.461l-0.906,0.459l-0.907,0.456l-0.907,0.453l-0.91,0.45l-0.912,0.449l-0.912,0.445l-0.914,0.442l-0.916,0.44l-0.917,0.437l-0.919,0.435l-0.921,0.431l-0.922,0.43l-0.924,0.426l-0.924,0.423l-0.926,0.421l-0.929,0.419l-0.931,0.415l-0.931,0.413l-0.931,0.41l-0.934,0.407l-0.936,0.404l-0.937,0.402l-0.939,0.399l-0.941,0.397l-0.941,0.393l-0.941,0.39l-0.946,0.388l-0.946,0.385l-0.946,0.382l-0.949,0.38l-0.951,0.377l-0.951,0.373l-0.953,0.371l-0.954,0.369l-0.957,0.365l-0.957,0.362l-0.957,0.36l-0.962,0.357l-0.961,0.354l-0.961,0.351l-0.965,0.348l-0.966,0.346l-0.966,0.342l-0.969,0.34l-0.97,0.337l-0.97,0.333l-0.972,0.331l-0.974,0.328l-0.975,0.326l-0.977,0.322l-0.978,0.319l-0.979,0.317l-0.98,0.313l-0.981,0.311l-0.982,0.307l-0.985,0.305l-0.985,0.302l-0.987,0.299l-0.988,0.296l-0.989,0.292l-0.991,0.291l-0.992,0.286l-0.992,0.284l-0.994,0.281l-0.996,0.278l-0.998,0.275l-0.997,0.272l-0.999,0.269l-1,0.266l-1.002,0.263l-1.003,0.26l-1.004,0.257l-1.006,0.254l-1.005,0.25l-1.008,0.249l-1.01,0.244l-1.009,0.242l-1.011,0.239l-1.012,0.235l-1.013,0.233l-1.016,0.229l-1.016,0.227l-1.015,0.223l-1.019,0.22l-1.02,0.217l-1.02,0.214l-1.021,0.211l-1.022,0.208l-1.024,0.205l-1.025,0.201l-1.025,0.198l-1.027,0.196l-1.029,0.192l-1.029,0.189l-1.029,0.186l-1.032,0.183l-1.031,0.179l-1.034,0.177l-1.035,0.173l-1.035,0.17l-1.036,0.167l-1.037,0.163l-1.039,0.161l-1.04,0.157l-1.04,0.154l-1.041,0.151l-1.043,0.148l-1.042,0.145l-1.045,0.141l-1.046,0.138l-1.045,0.135l-1.049,0.132l-1.048,0.128l-1.049,0.125l-1.051,0.122l-1.05,0.119l-1.051,0.115l-1.053,0.112l-1.055,0.109l-1.055,0.105l-1.055,0.103l-1.057,0.099l-1.058,0.096l-1.058,0.092l-1.059,0.089l-1.06,0.086l-1.061,0.082l-1.062,0.08l-1.063,0.076l-1.049,0.071l-0.547,0.036l-0.532,0.034l-0.532,0.034l-0.532,0.032l-0.535,0.032l-0.532,0.031l-0.533,0.03l-0.535,0.029l-0.533,0.028l-0.533,0.028l-0.536,0.027l-0.536,0.026l-0.531,0.024l-0.533,0.025l-0.539,0.023l-0.534,0.023l-0.534,0.021l-0.537,0.021l-0.537,0.02l-0.534,0.019l-0.535,0.018l-0.54,0.018l-0.535,0.016l-0.535,0.016l-0.538,0.015l-0.538,0.014l-0.538,0.013l-0.536,0.013l-0.538,0.011l-0.539,0.011l-0.536,0.01l-0.539,0.009l-0.539,0.008l-0.539,0.007l-0.539,0.006l-0.537,0.006l-0.539,0.005l-0.54,0.003l-0.54,0.003l-0.54,0.003l-0.54,0.001l-0.54,0l-0.54,0l-0.54,-0.001l-0.54,-0.003l-0.54,-0.003l-0.539,-0.003l-0.54,-0.005l-0.537,-0.006l-0.539,-0.006l-0.539,-0.007l-0.539,-0.008l-0.539,-0.009l-0.536,-0.01l-0.538,-0.011l-0.539,-0.011l-0.536,-0.013l-0.538,-0.013l-0.538,-0.014l-0.537,-0.015l-0.536,-0.016l-0.535,-0.016l-0.539,-0.018l-0.535,-0.018l-0.535,-0.019l-0.537,-0.02l-0.536,-0.021l-0.535,-0.021l-0.534,-0.023l-0.538,-0.023l-0.534,-0.025l-0.531,-0.024l-0.536,-0.026l-0.536,-0.027l-0.533,-0.028l-0.533,-0.028l-0.535,-0.029l-0.532,-0.03l-0.533,-0.031l-0.535,-0.032l-0.532,-0.032l-0.532,-0.034l-0.531,-0.034l-0.548,-0.036l-1.049,-0.071l-1.062,-0.076l-1.063,-0.08l-1.061,-0.082l-1.06,-0.086l-1.059,-0.089l-1.058,-0.092l-1.057,-0.096l-1.058,-0.099l-1.055,-0.103l-1.054,-0.105l-1.055,-0.109l-1.054,-0.112l-1.051,-0.115l-1.05,-0.119l-1.051,-0.122l-1.049,-0.125l-1.048,-0.128l-1.048,-0.132l-1.046,-0.135l-1.045,-0.138l-1.045,-0.141l-1.043,-0.145l-1.043,-0.148l-1.041,-0.15l-1.04,-0.155l-1.04,-0.157l-1.039,-0.161l-1.037,-0.163l-1.035,-0.167l-1.036,-0.17l-1.035,-0.174l-1.033,-0.176l-1.032,-0.179l-1.031,-0.183l-1.03,-0.186l-1.029,-0.189l-1.029,-0.192l-1.026,-0.196l-1.025,-0.198l-1.025,-0.201l-1.025,-0.205l-1.022,-0.208l-1.021,-0.211l-1.02,-0.214l-1.02,-0.217l-1.018,-0.22l-1.015,-0.223l-1.017,-0.227l-1.015,-0.229l-1.013,-0.233l-1.013,-0.235l-1.011,-0.239l-1.009,-0.242l-1.009,-0.245l-1.009,-0.248l-1.004,-0.25l-1.007,-0.254l-1.004,-0.257l-1.003,-0.26l-1.002,-0.263l-1,-0.266l-0.998,-0.269l-0.998,-0.272l-0.998,-0.275l-0.995,-0.278l-0.995,-0.281l-0.992,-0.284l-0.991,-0.287l-0.992,-0.29l-0.989,-0.292l-0.988,-0.296l-0.986,-0.299l-0.986,-0.302l-0.985,-0.305l-0.982,-0.307l-0.981,-0.311l-0.98,-0.313l-0.979,-0.317l-0.978,-0.319l-0.977,-0.322l-0.975,-0.326l-0.973,-0.328l-0.972,-0.331l-0.971,-0.333l-0.97,-0.337l-0.968,-0.34l-0.966,-0.342l-0.966,-0.346l-0.965,-0.348l-0.962,-0.351l-0.961,-0.354l-0.961,-0.357l-0.958,-0.36l-0.957,-0.362l-0.956,-0.365l-0.955,-0.369l-0.953,-0.371l-0.95,-0.373l-0.952,-0.377l-0.949,-0.38l-0.946,-0.382l-0.946,-0.385l-0.945,-0.388l-0.942,-0.39l-0.942,-0.394l-0.94,-0.396l-0.939,-0.399l-0.937,-0.402l-0.935,-0.404l-0.934,-0.407l-0.932,-0.41l-0.931,-0.413l-0.931,-0.416l-0.928,-0.418l-0.927,-0.421l-0.923,-0.423l-0.925,-0.426l-0.922,-0.43l-0.921,-0.431l-0.919,-0.435l-0.917,-0.437l-0.916,-0.44l-0.913,-0.442l-0.913,-0.445l-0.912,-0.449l-0.91,-0.45l-0.907,-0.453l-0.907,-0.456l-0.906,-0.459l-0.902,-0.461l-0.902,-0.464l-0.9,-0.466l-0.899,-0.47l-0.897,-0.471l-0.895,-0.475l-0.893,-0.477l-0.892,-0.479l-0.892,-0.483l-0.888,-0.485l-0.887,-0.487l-0.885,-0.489l-0.883,-0.493l-0.883,-0.495l-0.881,-0.498l-0.88,-0.501l-0.876,-0.503l-0.875,-0.504l-0.874,-0.509l-0.873,-0.511l-0.87,-0.513l-0.869,-0.515l-0.866,-0.518l-0.866,-0.521l-0.864,-0.523l-0.861,-0.525l-0.861,-0.529l-0.858,-0.531l-0.857,-0.533l-0.855,-0.536l-0.854,-0.538l-0.851,-0.541l-0.849,-0.543l-0.849,-0.546l-0.846,-0.548l-0.844,-0.55l-0.843,-0.553l-0.841,-0.557l-0.839,-0.557l-0.838,-0.561l-0.835,-0.562l-0.834,-0.566l-0.832,-0.567l-0.83,-0.571l-0.829,-0.573l-0.826,-0.575l-0.824,-0.576l-0.823,-0.58l-0.821,-0.583l-0.82,-0.584l-0.817,-0.587l-0.816,-0.59l-0.814,-0.592l-0.811,-0.594l-0.81,-0.596l-0.808,-0.599l-0.806,-0.601l-0.805,-0.604l-0.803,-0.606l-0.799,-0.608l-0.799,-0.61l-0.798,-0.614l-0.795,-0.615l-0.793,-0.618l-0.79,-0.619l-0.789,-0.622l-0.788,-0.625l-0.119,-0.095l-299.905,299.904l-53.623,-53.622l299.905,-299.905l-0.095,-0.12l-0.624,-0.786l-0.623,-0.789l-0.62,-0.792l-0.617,-0.793l-0.616,-0.795l-0.613,-0.796l-0.61,-0.799l-0.608,-0.801l-0.606,-0.802l-0.604,-0.805l-0.601,-0.806l-0.599,-0.808l-0.597,-0.811l-0.594,-0.811l-0.591,-0.813l-0.59,-0.816l-0.587,-0.818l-0.585,-0.819l-0.582,-0.82l-0.58,-0.824l-0.577,-0.824l-0.575,-0.827l-0.572,-0.828l-0.571,-0.83l-0.568,-0.833l-0.565,-0.833l-0.563,-0.836l-0.56,-0.837l-0.558,-0.839l-0.556,-0.841l-0.553,-0.843l-0.55,-0.844l-0.549,-0.847l-0.545,-0.848l-0.543,-0.85l-0.541,-0.851l-0.538,-0.853l-0.536,-0.856l-0.533,-0.856l-0.531,-0.858l-0.528,-0.861l-0.526,-0.862l-0.524,-0.864l-0.52,-0.865l-0.518,-0.866l-0.516,-0.869l-0.513,-0.871l-0.51,-0.872l-0.508,-0.874l-0.506,-0.875l-0.503,-0.878l-0.5,-0.878l-0.498,-0.881l-0.495,-0.882l-0.493,-0.884l-0.489,-0.885l-0.488,-0.887l-0.485,-0.89l-0.482,-0.89l-0.479,-0.891l-0.478,-0.894l-0.474,-0.896l-0.472,-0.897l-0.469,-0.898l-0.466,-0.9l-0.464,-0.902l-0.461,-0.903l-0.459,-0.905l-0.456,-0.907l-0.453,-0.908l-0.451,-0.909l-0.448,-0.911l-0.445,-0.914l-0.442,-0.914l-0.44,-0.915l-0.438,-0.918l-0.434,-0.919l-0.432,-0.92l-0.429,-0.922l-0.426,-0.924l-0.424,-0.925l-0.421,-0.927l-0.418,-0.928l-0.415,-0.929l-0.413,-0.932l-0.41,-0.932l-0.407,-0.934l-0.405,-0.936l-0.402,-0.937l-0.398,-0.939l-0.396,-0.939l-0.394,-0.942l-0.39,-0.942l-0.388,-0.945l-0.386,-0.946l-0.382,-0.947l-0.379,-0.949l-0.377,-0.95l-0.373,-0.951l-0.372,-0.954l-0.368,-0.954l-0.365,-0.955l-0.363,-0.958l-0.359,-0.959l-0.357,-0.959l-0.354,-0.962l-0.351,-0.962l-0.348,-0.965l-0.346,-0.965l-0.342,-0.967l-0.34,-0.968l-0.337,-0.97l-0.334,-0.971l-0.33,-0.972l-0.329,-0.974l-0.325,-0.975l-0.322,-0.976l-0.319,-0.977l-0.317,-0.979l-0.313,-0.981l-0.311,-0.982l-0.308,-0.982l-0.304,-0.984l-0.302,-0.986l-0.299,-0.987l-0.296,-0.988l-0.293,-0.989l-0.289,-0.99l-0.287,-0.992l-0.284,-0.993l-0.281,-0.994l-0.278,-0.996l-0.275,-0.997l-0.272,-0.997l-0.269,-1l-0.266,-1l-0.263,-1.001l-0.26,-1.003l-0.257,-1.004l-0.254,-1.006l-0.251,-1.006l-0.248,-1.007l-0.244,-1.01l-0.242,-1.01l-0.239,-1.011l-0.235,-1.012l-0.233,-1.013l-0.229,-1.015l-0.227,-1.016l-0.223,-1.016l-0.22,-1.019l-0.217,-1.019l-0.214,-1.02l-0.211,-1.022l-0.208,-1.022l-0.205,-1.024l-0.201,-1.024l-0.199,-1.026l-0.195,-1.027l-0.192,-1.028l-0.189,-1.029l-0.186,-1.03l-0.183,-1.031l-0.179,-1.032l-0.177,-1.034l-0.173,-1.034l-0.17,-1.036l-0.167,-1.036l-0.164,-1.036l-0.16,-1.039l-0.158,-1.04l-0.154,-1.041l-0.151,-1.041l-0.147,-1.042l-0.145,-1.044l-0.141,-1.044l-0.138,-1.046l-0.135,-1.046l-0.132,-1.047l-0.128,-1.048l-0.125,-1.049l-0.122,-1.051l-0.119,-1.051l-0.115,-1.051l-0.112,-1.053l-0.109,-1.055l-0.106,-1.054l-0.102,-1.056l-0.099,-1.056l-0.096,-1.058l-0.092,-1.059l-0.089,-1.059l-0.086,-1.06l-0.083,-1.061l-0.079,-1.062l-0.076,-1.062l-0.071,-1.049l-0.036,-0.548l-0.035,-0.532l-0.033,-0.532l-0.032,-0.532l-0.032,-0.533l-0.031,-0.534l-0.03,-0.534l-0.029,-0.534l-0.029,-0.532l-0.027,-0.534l-0.027,-0.534l-0.026,-0.535l-0.025,-0.534l-0.024,-0.535l-0.023,-0.535l-0.023,-0.536l-0.021,-0.535l-0.021,-0.536l-0.02,-0.535l-0.019,-0.536l-0.019,-0.536l-0.017,-0.537l-0.017,-0.537l-0.015,-0.536l-0.015,-0.537l-0.014,-0.536l-0.014,-0.538l-0.012,-0.537l-0.011,-0.539l-0.011,-0.538l-0.01,-0.536l-0.009,-0.539l-0.008,-0.539l-0.007,-0.539l-0.007,-0.54l-0.005,-0.536l-0.005,-0.54l-0.004,-0.541l-0.003,-0.539l-0.002,-0.539l-0.001,-0.54l-0.001,-0.54l0.001,-0.541l0.001,-0.54l0.002,-0.538l0.003,-0.54l0.004,-0.541l0.005,-0.539l0.005,-0.537l0.007,-0.539l0.007,-0.539l0.008,-0.539l0.009,-0.539l0.01,-0.536l0.011,-0.539l0.011,-0.538l0.012,-0.537l0.014,-0.538l0.014,-0.537l0.015,-0.537l0.015,-0.536l0.017,-0.536l0.017,-0.538l0.019,-0.536l0.019,-0.536l0.02,-0.535l0.021,-0.536l0.021,-0.535l0.023,-0.535l0.023,-0.535l0.024,-0.535l0.025,-0.535l0.026,-0.535l0.027,-0.534l0.027,-0.533l0.029,-0.533l0.029,-0.534l0.03,-0.534l0.031,-0.534l0.032,-0.533l0.032,-0.532l0.033,-0.532l0.035,-0.532l0.036,-0.547l0.071,-1.05l0.076,-1.062l0.079,-1.062l0.083,-1.061l0.086,-1.06l0.089,-1.059l0.092,-1.058l0.096,-1.058l0.099,-1.057l0.102,-1.055l0.106,-1.055l0.109,-1.054l0.112,-1.053l0.115,-1.052l0.119,-1.051l0.122,-1.05l0.125,-1.049l0.128,-1.049l0.132,-1.047l0.135,-1.046l0.138,-1.046l0.141,-1.044l0.145,-1.044l0.147,-1.042l0.151,-1.041l0.154,-1.041l0.158,-1.039l0.16,-1.039l0.164,-1.037l0.167,-1.036l0.17,-1.036l0.173,-1.034l0.177,-1.033l0.179,-1.033l0.183,-1.03l0.186,-1.03l0.189,-1.03l0.192,-1.028l0.195,-1.027l0.199,-1.025l0.201,-1.025l0.205,-1.023l0.208,-1.023l0.211,-1.022l0.214,-1.02l0.217,-1.019l0.22,-1.018l0.223,-1.016l0.227,-1.016l0.229,-1.016l0.233,-1.013l0.235,-1.011l0.239,-1.012l0.242,-1.01l0.244,-1.009l0.248,-1.008l0.251,-1.006l0.254,-1.005l0.257,-1.004l0.26,-1.003l0.263,-1.002l0.266,-1l0.269,-0.999l0.272,-0.998l0.275,-0.997l0.278,-0.996l0.281,-0.994l0.284,-0.993l0.287,-0.992l0.289,-0.99l0.293,-0.989l0.296,-0.988l0.299,-0.987l0.302,-0.986l0.304,-0.984l0.308,-0.982l0.311,-0.982l0.313,-0.98l0.317,-0.979l0.319,-0.977l0.322,-0.977l0.325,-0.975l0.329,-0.974l0.33,-0.972l0.334,-0.971l0.337,-0.969l0.34,-0.969l0.342,-0.966l0.346,-0.966l0.348,-0.964l0.351,-0.963l0.354,-0.961l0.357,-0.96l0.359,-0.959l0.363,-0.957l0.365,-0.956l0.368,-0.954l0.372,-0.954l0.373,-0.951l0.377,-0.95l0.379,-0.949l0.382,-0.947l0.386,-0.946l0.387,-0.944l0.391,-0.943l0.393,-0.941l0.397,-0.94l0.398,-0.939l0.402,-0.937l0.405,-0.936l0.407,-0.933l0.41,-0.933l0.413,-0.932l0.415,-0.929l0.418,-0.928l0.421,-0.927l0.424,-0.925l0.426,-0.923l0.429,-0.922l0.432,-0.92l0.435,-0.92l0.437,-0.918l0.44,-0.915l0.442,-0.914l0.445,-0.913l0.448,-0.912l0.451,-0.909l0.453,-0.908l0.456,-0.907l0.459,-0.904l0.461,-0.903l0.464,-0.903l0.466,-0.9l0.469,-0.898l0.472,-0.897l0.474,-0.895l0.478,-0.894l0.479,-0.892l0.482,-0.89l0.485,-0.889l0.487,-0.887l0.49,-0.886l0.493,-0.884l0.495,-0.882l0.498,-0.881l0.5,-0.878l0.503,-0.877l0.505,-0.876l0.508,-0.873l0.511,-0.873l0.513,-0.871l0.516,-0.868l0.518,-0.867l0.52,-0.865l0.524,-0.864l0.526,-0.862l0.528,-0.86l0.531,-0.859l0.533,-0.856l0.536,-0.856l0.538,-0.853l0.541,-0.851l0.543,-0.85l0.545,-0.848l0.549,-0.846l0.55,-0.845l0.553,-0.843l0.556,-0.841l0.558,-0.838l0.56,-0.838l0.563,-0.835l0.565,-0.834l0.569,-0.833l0.57,-0.83l0.572,-0.828l0.575,-0.826l0.577,-0.825l0.58,-0.823l0.583,-0.821l0.584,-0.819l0.587,-0.818l0.589,-0.815l0.592,-0.814l0.594,-0.812l0.597,-0.809l0.599,-0.809l0.601,-0.806l0.603,-0.804l0.607,-0.803l0.608,-0.8l0.61,-0.799l0.614,-0.797l0.615,-0.795l0.617,-0.793l0.62,-0.791l0.622,-0.789l0.625,-0.788l0.627,-0.785l0.629,-0.783l0.631,-0.782l0.634,-0.779l0.636,-0.778l0.638,-0.775l0.641,-0.774l0.643,-0.772l0.645,-0.77l0.647,-0.767l0.65,-0.766l0.652,-0.764l0.654,-0.762l0.656,-0.759l0.659,-0.759l0.66,-0.756l0.663,-0.753l0.665,-0.752l0.668,-0.75l0.669,-0.747l0.672,-0.747l0.675,-0.743l0.676,-0.742l0.678,-0.74l0.681,-0.738l0.682,-0.735l0.685,-0.733l0.688,-0.732l0.689,-0.73l0.691,-0.727l0.694,-0.725l0.696,-0.724l0.698,-0.721l0.699,-0.718l0.702,-0.717l0.705,-0.715l0.706,-0.713l0.709,-0.71l0.711,-0.709l0.712,-0.707l0.715,-0.704l0.717,-0.702l0.719,-0.7l0.721,-0.698l0.723,-0.695l0.726,-0.694l0.727,-0.692l0.73,-0.689l0.731,-0.687l0.733,-0.685l0.736,-0.683l0.738,-0.68l0.74,-0.679l0.741,-0.676l0.744,-0.674l0.745,-0.672l0.748,-0.669l0.75,-0.668l0.752,-0.665l0.754,-0.663l0.756,-0.661l0.758,-0.658l0.76,-0.657l0.762,-0.654l0.763,-0.652l0.766,-0.649l0.768,-0.648l0.77,-0.645l0.771,-0.643l0.774,-0.64l0.776,-0.638l0.777,-0.636l0.78,-0.634l0.781,-0.632l0.784,-0.629l0.785,-0.627l0.787,-0.624l0.79,-0.622l0.791,-0.62l0.793,-0.618l0.794,-0.615l0.797,-0.613l0.799,-0.611l0.801,-0.608l0.802,-0.606l0.805,-0.604l0.806,-0.601l0.808,-0.598l0.81,-0.597l0.812,-0.594l0.813,-0.592l0.816,-0.589l0.817,-0.587l0.819,-0.585l0.822,-0.582l0.823,-0.58l0.824,-0.577l0.827,-0.575l0.828,-0.573l0.83,-0.57l0.832,-0.568l0.834,-0.565l0.835,-0.563l0.838,-0.561l0.839,-0.558l0.841,-0.555l0.842,-0.553l0.845,-0.551l0.847,-0.548l0.847,-0.546l0.85,-0.543l0.852,-0.541l0.853,-0.538l0.855,-0.536l0.857,-0.533l0.858,-0.531l0.861,-0.528l0.861,-0.525l0.864,-0.524l0.865,-0.521l0.868,-0.518l0.868,-0.515l0.871,-0.513l0.872,-0.511l0.874,-0.508l0.875,-0.505l0.877,-0.503l0.879,-0.501l0.881,-0.497l0.882,-0.495l0.884,-0.493l0.885,-0.49l0.887,-0.487l0.889,-0.485l0.891,-0.483l0.892,-0.479l0.893,-0.477l0.896,-0.475l0.896,-0.471l0.899,-0.469l0.9,-0.467l0.902,-0.464l0.903,-0.461l0.905,-0.458l0.907,-0.456l0.908,-0.454l0.909,-0.45l0.911,-0.448l0.913,-0.445l0.915,-0.443l0.915,-0.44l0.918,-0.437l0.919,-0.434l0.92,-0.432l0.922,-0.429l0.924,-0.427l0.925,-0.423l0.926,-0.421l0.928,-0.418l0.93,-0.416l0.931,-0.413l0.933,-0.41l0.934,-0.407l0.935,-0.404l0.938,-0.402l0.938,-0.399l0.94,-0.396l0.942,-0.393l0.943,-0.391l0.944,-0.388l0.946,-0.385l0.947,-0.382l0.949,-0.38l0.95,-0.376l0.951,-0.374l0.953,-0.371l0.955,-0.368l0.955,-0.366l0.958,-0.362l0.958,-0.36l0.96,-0.357l0.962,-0.354l0.962,-0.351l0.965,-0.348l0.965,-0.345l0.967,-0.343l0.968,-0.339l0.97,-0.337l0.971,-0.334l0.972,-0.331l0.974,-0.328l0.975,-0.325l0.976,-0.323l0.977,-0.319l0.979,-0.316l0.981,-0.314l0.981,-0.31l0.983,-0.308l0.984,-0.305l0.986,-0.302l0.986,-0.298l0.988,-0.296l0.989,-0.293l0.991,-0.29l0.992,-0.287l0.993,-0.284l0.994,-0.281l0.995,-0.278l0.997,-0.275l0.998,-0.272l0.999,-0.269l1.001,-0.266l1.002,-0.263l1.002,-0.26l1.004,-0.257l1.006,-0.254l1.006,-0.25l1.007,-0.248l1.009,-0.245l1.01,-0.242l1.012,-0.238l1.012,-0.236l1.013,-0.232l1.015,-0.23l1.016,-0.226l1.017,-0.224l1.017,-0.22l1.02,-0.217l1.02,-0.214l1.021,-0.211l1.023,-0.207l1.023,-0.205l1.025,-0.202l1.026,-0.198l1.027,-0.195l1.028,-0.193l1.029,-0.189l1.03,-0.186l1.031,-0.182l1.032,-0.18l1.033,-0.176l1.035,-0.174l1.035,-0.17l1.036,-0.166l1.038,-0.164l1.038,-0.161l1.04,-0.157l1.04,-0.154l1.041,-0.151l1.043,-0.148l1.043,-0.144l1.045,-0.142l1.045,-0.138l1.047,-0.135l1.047,-0.131l1.048,-0.129l1.049,-0.125l1.05,-0.122l1.051,-0.118l1.052,-0.116l1.053,-0.112l1.054,-0.109l1.055,-0.105l1.056,-0.102l1.056,-0.099l1.058,-0.096l1.058,-0.093l1.059,-0.089l1.061,-0.086l1.06,-0.082l1.062,-0.079l1.063,-0.076l1.049,-0.072l0.547,-0.036l0.532,-0.034l0.532,-0.033l0.533,-0.033l0.533,-0.032l0.533,-0.031l0.534,-0.03l0.533,-0.029l0.534,-0.028l0.534,-0.028l0.534,-0.026l0.535,-0.026l0.534,-0.025l0.535,-0.024l0.535,-0.024l0.535,-0.022l0.536,-0.022l0.535,-0.021l0.536,-0.02l0.536,-0.019l0.536,-0.018l0.537,-0.017l0.536,-0.017l0.537,-0.016l0.537,-0.015l0.537,-0.014l0.537,-0.013l0.538,-0.012l0.537,-0.012l0.538,-0.011l0.538,-0.009l0.538,-0.009l0.539,-0.008l0.539,-0.008l0.538,-0.006l0.539,-0.006l0.54,-0.004l0.539,-0.004l0.539,-0.003l0.54,-0.002l0.54,-0.002l0.54,0l0.54,0Zm-0.961,75l-0.421,0.001l-0.421,0.002l-0.42,0.002l-0.421,0.003l-0.42,0.004l-0.42,0.004l-0.42,0.005l-0.42,0.006l-0.419,0.006l-0.42,0.007l-0.419,0.008l-0.419,0.008l-0.419,0.009l-0.419,0.01l-0.418,0.01l-0.418,0.011l-0.418,0.012l-0.418,0.012l-0.418,0.013l-0.418,0.013l-0.417,0.015l-0.417,0.015l-0.417,0.015l-0.417,0.016l-0.417,0.017l-0.416,0.018l-0.416,0.018l-0.417,0.019l-0.416,0.019l-0.415,0.02l-0.416,0.021l-0.415,0.021l-0.415,0.022l-0.415,0.023l-0.415,0.023l-0.415,0.024l-0.414,0.025l-0.414,0.025l-0.414,0.026l-0.414,0.027l-0.399,0.026l-0.842,0.058l-0.825,0.059l-0.826,0.061l-0.824,0.064l-0.824,0.067l-0.823,0.069l-0.822,0.072l-0.821,0.074l-0.821,0.077l-0.819,0.08l-0.819,0.082l-0.819,0.084l-0.817,0.087l-0.817,0.09l-0.815,0.092l-0.815,0.095l-0.814,0.097l-0.814,0.099l-0.813,0.102l-0.811,0.105l-0.811,0.107l-0.81,0.11l-0.81,0.112l-0.808,0.114l-0.808,0.117l-0.807,0.12l-0.805,0.122l-0.805,0.124l-0.805,0.127l-0.803,0.13l-0.803,0.132l-0.801,0.134l-0.801,0.137l-0.8,0.139l-0.799,0.141l-0.799,0.144l-0.797,0.147l-0.797,0.149l-0.795,0.151l-0.795,0.154l-0.794,0.156l-0.793,0.159l-0.792,0.161l-0.792,0.163l-0.79,0.166l-0.789,0.168l-0.789,0.17l-0.788,0.173l-0.786,0.176l-0.786,0.177l-0.785,0.181l-0.784,0.182l-0.783,0.185l-0.782,0.187l-0.781,0.19l-0.781,0.191l-0.779,0.195l-0.779,0.196l-0.777,0.199l-0.777,0.202l-0.775,0.203l-0.775,0.206l-0.774,0.208l-0.773,0.211l-0.771,0.213l-0.771,0.215l-0.77,0.218l-0.769,0.22l-0.768,0.222l-0.767,0.224l-0.766,0.227l-0.765,0.229l-0.764,0.232l-0.763,0.233l-0.762,0.236l-0.761,0.238l-0.76,0.241l-0.759,0.243l-0.758,0.245l-0.757,0.247l-0.756,0.249l-0.755,0.252l-0.754,0.254l-0.753,0.257l-0.752,0.258l-0.75,0.261l-0.75,0.263l-0.749,0.265l-0.748,0.268l-0.746,0.269l-0.746,0.272l-0.745,0.274l-0.743,0.277l-0.742,0.278l-0.742,0.281l-0.74,0.283l-0.739,0.285l-0.739,0.288l-0.737,0.289l-0.736,0.292l-0.734,0.294l-0.734,0.296l-0.733,0.298l-0.732,0.301l-0.73,0.302l-0.729,0.305l-0.729,0.307l-0.727,0.309l-0.726,0.311l-0.725,0.314l-0.724,0.315l-0.722,0.318l-0.722,0.32l-0.72,0.322l-0.72,0.324l-0.718,0.326l-0.717,0.328l-0.715,0.331l-0.715,0.332l-0.713,0.335l-0.713,0.337l-0.711,0.339l-0.71,0.341l-0.709,0.343l-0.707,0.345l-0.706,0.347l-0.706,0.35l-0.704,0.351l-0.703,0.353l-0.701,0.356l-0.701,0.358l-0.699,0.359l-0.698,0.362l-0.697,0.364l-0.695,0.366l-0.695,0.368l-0.693,0.369l-0.692,0.373l-0.69,0.373l-0.689,0.376l-0.689,0.379l-0.687,0.38l-0.685,0.382l-0.684,0.384l-0.684,0.386l-0.682,0.388l-0.68,0.39l-0.68,0.393l-0.678,0.394l-0.676,0.396l-0.676,0.398l-0.674,0.4l-0.673,0.402l-0.671,0.404l-0.67,0.406l-0.67,0.409l-0.667,0.41l-0.666,0.411l-0.666,0.414l-0.663,0.416l-0.663,0.418l-0.661,0.42l-0.659,0.422l-0.659,0.423l-0.657,0.426l-0.655,0.427l-0.655,0.43l-0.653,0.431l-0.651,0.433l-0.65,0.435l-0.649,0.438l-0.648,0.439l-0.646,0.441l-0.645,0.443l-0.643,0.444l-0.642,0.446l-0.641,0.449l-0.639,0.451l-0.637,0.452l-0.637,0.454l-0.635,0.456l-0.633,0.458l-0.632,0.459l-0.631,0.462l-0.629,0.463l-0.628,0.466l-0.626,0.467l-0.625,0.469l-0.624,0.47l-0.622,0.473l-0.62,0.474l-0.619,0.477l-0.618,0.478l-0.617,0.48l-0.614,0.482l-0.614,0.483l-0.611,0.485l-0.61,0.487l-0.609,0.489l-0.608,0.491l-0.606,0.493l-0.604,0.494l-0.603,0.496l-0.601,0.498l-0.6,0.499l-0.598,0.502l-0.597,0.503l-0.595,0.505l-0.594,0.507l-0.592,0.508l-0.591,0.51l-0.589,0.512l-0.587,0.514l-0.586,0.515l-0.585,0.517l-0.583,0.519l-0.581,0.52l-0.58,0.523l-0.578,0.524l-0.577,0.526l-0.575,0.527l-0.573,0.529l-0.572,0.531l-0.57,0.532l-0.569,0.535l-0.567,0.536l-0.565,0.537l-0.564,0.539l-0.563,0.541l-0.56,0.543l-0.559,0.544l-0.558,0.546l-0.556,0.548l-0.554,0.549l-0.552,0.55l-0.551,0.553l-0.549,0.554l-0.547,0.555l-0.546,0.558l-0.545,0.56l-0.543,0.56l-0.54,0.562l-0.539,0.564l-0.538,0.566l-0.536,0.567l-0.534,0.568l-0.533,0.57l-0.531,0.573l-0.528,0.573l-0.528,0.575l-0.526,0.577l-0.524,0.578l-0.522,0.579l-0.52,0.582l-0.519,0.583l-0.517,0.584l-0.516,0.586l-0.513,0.588l-0.512,0.589l-0.51,0.59l-0.509,0.593l-0.506,0.593l-0.505,0.596l-0.504,0.597l-0.501,0.597l-0.5,0.6l-0.497,0.602l-0.497,0.603l-0.494,0.604l-0.492,0.606l-0.491,0.607l-0.489,0.609l-0.487,0.61l-0.486,0.612l-0.483,0.613l-0.482,0.615l-0.48,0.616l-0.478,0.618l-0.476,0.619l-0.474,0.621l-0.473,0.622l-0.471,0.623l-0.469,0.625l-0.467,0.627l-0.465,0.627l-0.463,0.629l-0.462,0.631l-0.46,0.632l-0.458,0.634l-0.456,0.635l-0.454,0.636l-0.452,0.638l-0.45,0.639l-0.449,0.641l-0.446,0.642l-0.445,0.643l-0.443,0.645l-0.441,0.646l-0.439,0.647l-0.437,0.649l-0.435,0.65l-0.434,0.652l-0.431,0.653l-0.429,0.654l-0.428,0.656l-0.425,0.657l-0.424,0.658l-0.422,0.66l-0.419,0.661l-0.418,0.663l-0.416,0.663l-0.414,0.665l-0.412,0.667l-0.41,0.667l-0.408,0.669l-0.406,0.67l-0.404,0.672l-0.402,0.673l-0.401,0.674l-0.398,0.675l-0.396,0.677l-0.394,0.678l-0.392,0.679l-0.39,0.681l-0.389,0.682l-0.385,0.683l-0.385,0.684l-0.382,0.686l-0.38,0.687l-0.378,0.688l-0.376,0.689l-0.374,0.691l-0.372,0.692l-0.37,0.693l-0.368,0.694l-0.366,0.696l-0.364,0.697l-0.361,0.698l-0.36,0.699l-0.358,0.7l-0.355,0.702l-0.353,0.702l-0.352,0.705l-0.349,0.705l-0.348,0.707l-0.345,0.707l-0.343,0.709l-0.341,0.71l-0.339,0.711l-0.336,0.712l-0.335,0.714l-0.333,0.714l-0.33,0.716l-0.329,0.717l-0.326,0.718l-0.324,0.719l-0.322,0.721l-0.319,0.721l-0.318,0.722l-0.316,0.725l-0.313,0.725l-0.311,0.725l-0.309,0.727l-0.307,0.729l-0.305,0.73l-0.303,0.73l-0.3,0.731l-0.298,0.733l-0.297,0.734l-0.294,0.735l-0.291,0.736l-0.29,0.737l-0.287,0.738l-0.285,0.739l-0.283,0.741l-0.281,0.741l-0.279,0.742l-0.276,0.744l-0.274,0.744l-0.272,0.746l-0.27,0.747l-0.267,0.748l-0.266,0.749l-0.263,0.749l-0.26,0.751l-0.259,0.752l-0.256,0.753l-0.254,0.754l-0.252,0.754l-0.25,0.756l-0.247,0.758l-0.245,0.758l-0.243,0.758l-0.24,0.76l-0.238,0.762l-0.236,0.762l-0.234,0.763l-0.231,0.763l-0.229,0.765l-0.227,0.767l-0.225,0.767l-0.222,0.767l-0.22,0.769l-0.217,0.771l-0.215,0.77l-0.213,0.772l-0.211,0.773l-0.208,0.773l-0.206,0.775l-0.204,0.776l-0.201,0.776l-0.199,0.778l-0.197,0.778l-0.194,0.78l-0.192,0.78l-0.189,0.781l-0.188,0.782l-0.184,0.783l-0.183,0.785l-0.18,0.785l-0.178,0.785l-0.175,0.787l-0.173,0.788l-0.171,0.788l-0.168,0.79l-0.166,0.79l-0.163,0.791l-0.161,0.792l-0.158,0.793l-0.157,0.794l-0.154,0.796l-0.151,0.795l-0.149,0.796l-0.146,0.798l-0.144,0.798l-0.142,0.8l-0.139,0.799l-0.137,0.801l-0.134,0.802l-0.132,0.802l-0.129,0.804l-0.127,0.805l-0.125,0.804l-0.122,0.806l-0.119,0.807l-0.117,0.807l-0.115,0.809l-0.112,0.809l-0.109,0.811l-0.108,0.81l-0.104,0.812l-0.102,0.813l-0.1,0.813l-0.097,0.814l-0.095,0.815l-0.092,0.816l-0.089,0.817l-0.087,0.817l-0.085,0.818l-0.082,0.819l-0.079,0.82l-0.077,0.821l-0.074,0.821l-0.072,0.821l-0.069,0.824l-0.067,0.824l-0.064,0.824l-0.062,0.825l-0.059,0.826l-0.057,0.841l-0.026,0.399l-0.027,0.414l-0.026,0.415l-0.025,0.415l-0.025,0.413l-0.024,0.414l-0.023,0.415l-0.023,0.414l-0.022,0.416l-0.022,0.417l-0.02,0.415l-0.02,0.415l-0.02,0.416l-0.019,0.416l-0.018,0.416l-0.017,0.417l-0.017,0.416l-0.016,0.417l-0.016,0.417l-0.015,0.418l-0.014,0.417l-0.014,0.417l-0.013,0.418l-0.012,0.418l-0.011,0.418l-0.011,0.419l-0.011,0.418l-0.009,0.419l-0.009,0.418l-0.009,0.419l-0.007,0.421l-0.007,0.419l-0.007,0.419l-0.005,0.419l-0.005,0.419l-0.005,0.423l-0.003,0.419l-0.003,0.419l-0.003,0.421l-0.001,0.422l-0.001,0.421l-0.001,0.421l0.001,0.421l0.001,0.421l0.001,0.421l0.003,0.421l0.003,0.419l0.003,0.42l0.005,0.422l0.005,0.419l0.005,0.42l0.007,0.419l0.007,0.419l0.007,0.421l0.009,0.418l0.009,0.418l0.009,0.419l0.011,0.418l0.011,0.419l0.011,0.418l0.012,0.419l0.013,0.418l0.014,0.416l0.014,0.418l0.015,0.417l0.016,0.417l0.016,0.417l0.017,0.417l0.017,0.416l0.018,0.416l0.019,0.416l0.02,0.416l0.02,0.415l0.02,0.416l0.022,0.416l0.022,0.416l0.023,0.415l0.023,0.414l0.024,0.414l0.025,0.414l0.025,0.415l0.026,0.414l0.027,0.415l0.026,0.398l0.057,0.841l0.059,0.826l0.062,0.826l0.064,0.824l0.067,0.824l0.069,0.823l0.072,0.822l0.074,0.821l0.077,0.82l0.079,0.82l0.082,0.82l0.085,0.817l0.087,0.817l0.089,0.817l0.092,0.816l0.095,0.815l0.097,0.815l0.1,0.813l0.102,0.812l0.104,0.812l0.108,0.811l0.109,0.81l0.112,0.809l0.115,0.809l0.117,0.808l0.119,0.806l0.122,0.806l0.125,0.805l0.127,0.804l0.129,0.804l0.132,0.803l0.134,0.801l0.137,0.801l0.139,0.8l0.142,0.8l0.144,0.798l0.146,0.797l0.149,0.796l0.151,0.796l0.154,0.795l0.157,0.794l0.158,0.793l0.161,0.792l0.163,0.791l0.166,0.79l0.168,0.79l0.171,0.788l0.173,0.789l0.175,0.786l0.178,0.786l0.18,0.785l0.183,0.784l0.184,0.783l0.188,0.782l0.189,0.781l0.192,0.781l0.194,0.779l0.197,0.778l0.199,0.778l0.201,0.776l0.204,0.776l0.206,0.775l0.208,0.774l0.211,0.773l0.213,0.772l0.215,0.77l0.217,0.77l0.22,0.769l0.222,0.767l0.225,0.768l0.227,0.766l0.229,0.765l0.231,0.764l0.234,0.762l0.236,0.763l0.238,0.761l0.24,0.76l0.243,0.758l0.245,0.758l0.247,0.758l0.25,0.756l0.252,0.755l0.254,0.753l0.256,0.753l0.259,0.752l0.26,0.751l0.263,0.75l0.266,0.749l0.267,0.747l0.27,0.747l0.272,0.746l0.274,0.744l0.276,0.744l0.279,0.742l0.281,0.741l0.283,0.741l0.285,0.739l0.287,0.738l0.29,0.737l0.291,0.736l0.294,0.735l0.297,0.734l0.298,0.733l0.3,0.731l0.303,0.731l0.305,0.729l0.307,0.729l0.309,0.727l0.311,0.726l0.313,0.724l0.316,0.725l0.318,0.723l0.319,0.72l0.322,0.721l0.324,0.719l0.326,0.718l0.329,0.717l0.33,0.716l0.333,0.715l0.335,0.713l0.336,0.713l0.339,0.71l0.341,0.71l0.343,0.71l0.345,0.707l0.348,0.706l0.349,0.706l0.351,0.704l0.354,0.702l0.355,0.702l0.358,0.701l0.36,0.698l0.361,0.698l0.364,0.697l0.366,0.696l0.368,0.694l0.37,0.693l0.372,0.692l0.374,0.692l0.376,0.688l0.378,0.688l0.38,0.687l0.382,0.686l0.384,0.684l0.386,0.683l0.389,0.682l0.39,0.681l0.392,0.679l0.394,0.678l0.397,0.677l0.397,0.675l0.401,0.674l0.402,0.674l0.404,0.672l0.406,0.669l0.408,0.669l0.41,0.667l0.412,0.667l0.414,0.666l0.416,0.663l0.418,0.662l0.419,0.661l0.422,0.66l0.424,0.659l0.425,0.656l0.428,0.656l0.429,0.655l0.431,0.652l0.434,0.652l0.435,0.65l0.437,0.649l0.439,0.648l0.441,0.645l0.443,0.645l0.445,0.644l0.446,0.642l0.449,0.64l0.45,0.639l0.452,0.638l0.455,0.637l0.455,0.634l0.458,0.634l0.46,0.632l0.462,0.631l0.463,0.629l0.465,0.627l0.467,0.627l0.469,0.625l0.471,0.623l0.472,0.623l0.475,0.62l0.476,0.62l0.478,0.617l0.48,0.616l0.482,0.615l0.483,0.613l0.486,0.612l0.488,0.611l0.488,0.608l0.49,0.607l0.493,0.606l0.494,0.605l0.496,0.602l0.499,0.602l0.499,0.6l0.501,0.597l0.503,0.598l0.506,0.595l0.506,0.593l0.509,0.593l0.51,0.591l0.512,0.589l0.513,0.587l0.515,0.586l0.517,0.584l0.52,0.583l0.521,0.582l0.521,0.579l0.524,0.579l0.527,0.577l0.527,0.575l0.528,0.572l0.532,0.573l0.532,0.57l0.534,0.569l0.536,0.567l0.537,0.565l0.54,0.564l0.541,0.563l0.542,0.56l0.545,0.559l0.546,0.558l0.547,0.555l0.549,0.554l0.551,0.553l0.552,0.551l0.555,0.549l0.555,0.548l0.558,0.545l0.559,0.545l0.56,0.542l0.562,0.541l0.564,0.539l0.566,0.538l0.567,0.536l0.569,0.534l0.57,0.532l0.571,0.531l0.574,0.529l0.576,0.528l0.576,0.525l0.578,0.524l0.58,0.523l0.581,0.52l0.583,0.519l0.585,0.517l0.585,0.515l0.588,0.514l0.589,0.512l0.591,0.51l0.592,0.509l0.594,0.506l0.596,0.506l0.596,0.503l0.598,0.5l0.599,0.5l0.603,0.499l0.602,0.495l0.604,0.494l0.606,0.493l0.608,0.491l0.609,0.489l0.61,0.487l0.611,0.485l0.614,0.484l0.615,0.482l0.616,0.479l0.618,0.479l0.618,0.476l0.62,0.474l0.624,0.473l0.623,0.471l0.625,0.469l0.626,0.467l0.628,0.465l0.629,0.463l0.631,0.462l0.632,0.46l0.633,0.457l0.635,0.456l0.636,0.454l0.638,0.452l0.639,0.451l0.641,0.449l0.643,0.447l0.642,0.444l0.645,0.443l0.646,0.44l0.648,0.439l0.649,0.438l0.65,0.435l0.652,0.434l0.652,0.43l0.654,0.43l0.656,0.428l0.658,0.425l0.657,0.424l0.66,0.421l0.662,0.42l0.662,0.418l0.664,0.416l0.665,0.414l0.666,0.412l0.667,0.409l0.67,0.409l0.669,0.406l0.671,0.403l0.674,0.403l0.675,0.4l0.675,0.399l0.676,0.395l0.678,0.394l0.68,0.393l0.681,0.39l0.682,0.388l0.682,0.386l0.684,0.384l0.686,0.382l0.687,0.381l0.689,0.378l0.689,0.376l0.69,0.374l0.692,0.372l0.693,0.37l0.695,0.368l0.695,0.366l0.697,0.363l0.698,0.362l0.699,0.36l0.702,0.358l0.701,0.355l0.702,0.353l0.705,0.352l0.705,0.349l0.705,0.347l0.708,0.345l0.71,0.344l0.709,0.34l0.712,0.34l0.712,0.336l0.713,0.335l0.715,0.332l0.715,0.33l0.718,0.329l0.718,0.327l0.719,0.324l0.719,0.321l0.722,0.32l0.723,0.318l0.725,0.316l0.725,0.313l0.725,0.311l0.727,0.309l0.728,0.307l0.729,0.305l0.732,0.303l0.731,0.3l0.732,0.298l0.735,0.297l0.735,0.294l0.735,0.291l0.738,0.29l0.738,0.287l0.739,0.285l0.739,0.283l0.742,0.281l0.744,0.279l0.742,0.276l0.744,0.274l0.747,0.272l0.746,0.27l0.747,0.267l0.75,0.265l0.749,0.263l0.751,0.261l0.752,0.259l0.753,0.256l0.755,0.254l0.754,0.252l0.756,0.249l0.757,0.248l0.758,0.245l0.759,0.242l0.76,0.241l0.762,0.238l0.761,0.236l0.763,0.234l0.764,0.231l0.765,0.229l0.766,0.227l0.766,0.224l0.769,0.223l0.769,0.22l0.77,0.217l0.771,0.215l0.771,0.213l0.773,0.211l0.774,0.208l0.775,0.206l0.775,0.204l0.777,0.201l0.777,0.199l0.778,0.196l0.781,0.195l0.779,0.192l0.781,0.189l0.783,0.187l0.783,0.185l0.784,0.183l0.785,0.18l0.785,0.177l0.786,0.176l0.79,0.173l0.788,0.171l0.789,0.167l0.79,0.166l0.792,0.164l0.792,0.161l0.793,0.158l0.793,0.156l0.796,0.154l0.796,0.152l0.795,0.148l0.798,0.147l0.799,0.144l0.798,0.142l0.801,0.139l0.801,0.137l0.801,0.134l0.802,0.132l0.804,0.129l0.805,0.127l0.805,0.124l0.805,0.122l0.807,0.12l0.808,0.117l0.809,0.115l0.809,0.112l0.81,0.109l0.81,0.107l0.813,0.105l0.812,0.102l0.813,0.1l0.815,0.097l0.814,0.094l0.816,0.092l0.818,0.09l0.817,0.087l0.817,0.085l0.819,0.082l0.821,0.079l0.819,0.077l0.821,0.074l0.823,0.072l0.823,0.069l0.824,0.067l0.825,0.064l0.824,0.062l0.827,0.059l0.841,0.057l0.398,0.026l0.415,0.027l0.414,0.026l0.415,0.025l0.413,0.025l0.415,0.024l0.415,0.023l0.414,0.023l0.416,0.022l0.416,0.021l0.414,0.021l0.414,0.02l0.42,0.02l0.417,0.019l0.412,0.018l0.418,0.017l0.418,0.017l0.416,0.016l0.415,0.016l0.419,0.015l0.419,0.014l0.414,0.013l0.419,0.013l0.42,0.013l0.417,0.011l0.417,0.011l0.418,0.01l0.421,0.01l0.418,0.009l0.418,0.008l0.421,0.008l0.419,0.007l0.419,0.006l0.419,0.006l0.42,0.005l0.422,0.004l0.42,0.004l0.42,0.003l0.421,0.002l0.42,0.002l0.421,0.001l0.421,0l0.421,0l0.421,-0.001l0.421,-0.002l0.42,-0.002l0.42,-0.003l0.42,-0.004l0.422,-0.004l0.42,-0.005l0.419,-0.006l0.419,-0.006l0.419,-0.007l0.421,-0.008l0.419,-0.008l0.418,-0.009l0.42,-0.01l0.418,-0.01l0.417,-0.011l0.418,-0.011l0.419,-0.013l0.419,-0.013l0.414,-0.013l0.419,-0.014l0.419,-0.015l0.416,-0.016l0.415,-0.016l0.418,-0.017l0.418,-0.017l0.412,-0.018l0.418,-0.019l0.419,-0.02l0.414,-0.02l0.414,-0.021l0.416,-0.021l0.416,-0.022l0.414,-0.023l0.415,-0.023l0.415,-0.024l0.413,-0.025l0.415,-0.025l0.415,-0.026l0.414,-0.027l0.398,-0.026l0.841,-0.057l0.827,-0.059l0.824,-0.062l0.825,-0.064l0.824,-0.067l0.823,-0.069l0.823,-0.072l0.821,-0.074l0.82,-0.077l0.82,-0.079l0.819,-0.082l0.817,-0.085l0.817,-0.087l0.818,-0.09l0.816,-0.092l0.815,-0.094l0.814,-0.097l0.814,-0.1l0.811,-0.102l0.813,-0.105l0.81,-0.107l0.81,-0.109l0.81,-0.112l0.808,-0.115l0.808,-0.117l0.807,-0.12l0.806,-0.122l0.804,-0.124l0.805,-0.127l0.804,-0.129l0.803,-0.132l0.8,-0.134l0.801,-0.137l0.801,-0.139l0.799,-0.142l0.798,-0.144l0.798,-0.147l0.796,-0.148l0.795,-0.152l0.796,-0.154l0.794,-0.156l0.792,-0.158l0.792,-0.161l0.792,-0.164l0.791,-0.166l0.788,-0.167l0.788,-0.171l0.79,-0.173l0.786,-0.175l0.785,-0.178l0.785,-0.18l0.784,-0.183l0.783,-0.184l0.783,-0.188l0.781,-0.189l0.78,-0.192l0.781,-0.195l0.777,-0.196l0.777,-0.199l0.777,-0.201l0.775,-0.204l0.775,-0.206l0.775,-0.208l0.773,-0.211l0.77,-0.213l0.771,-0.215l0.77,-0.217l0.769,-0.22l0.769,-0.223l0.766,-0.224l0.766,-0.227l0.765,-0.229l0.764,-0.231l0.763,-0.234l0.761,-0.236l0.762,-0.238l0.76,-0.241l0.76,-0.242l0.758,-0.245l0.756,-0.248l0.756,-0.249l0.755,-0.252l0.754,-0.254l0.753,-0.256l0.752,-0.259l0.751,-0.261l0.749,-0.263l0.75,-0.265l0.747,-0.267l0.746,-0.27l0.747,-0.272l0.744,-0.274l0.743,-0.276l0.743,-0.279l0.742,-0.281l0.739,-0.283l0.739,-0.285l0.738,-0.287l0.739,-0.29l0.734,-0.291l0.735,-0.294l0.735,-0.297l0.732,-0.298l0.731,-0.3l0.732,-0.303l0.73,-0.305l0.727,-0.307l0.727,-0.309l0.726,-0.311l0.725,-0.313l0.724,-0.316l0.723,-0.318l0.722,-0.32l0.719,-0.321l0.719,-0.324l0.718,-0.327l0.719,-0.329l0.715,-0.33l0.714,-0.332l0.714,-0.335l0.712,-0.337l0.711,-0.339l0.709,-0.34l0.71,-0.344l0.708,-0.345l0.705,-0.347l0.706,-0.349l0.704,-0.352l0.703,-0.353l0.7,-0.355l0.702,-0.358l0.7,-0.36l0.697,-0.362l0.697,-0.363l0.695,-0.366l0.695,-0.368l0.693,-0.37l0.692,-0.372l0.69,-0.374l0.689,-0.376l0.689,-0.378l0.687,-0.381l0.686,-0.382l0.684,-0.384l0.682,-0.386l0.682,-0.387l0.681,-0.391l0.68,-0.393l0.678,-0.394l0.676,-0.396l0.675,-0.397l0.674,-0.401l0.675,-0.403l0.671,-0.404l0.67,-0.405l0.669,-0.408l0.667,-0.41l0.666,-0.412l0.666,-0.414l0.664,-0.416l0.661,-0.418l0.662,-0.419l0.659,-0.422l0.659,-0.424l0.657,-0.425l0.656,-0.429l0.655,-0.429l0.651,-0.43l0.652,-0.434l0.651,-0.435l0.649,-0.438l0.647,-0.439l0.646,-0.44l0.644,-0.443l0.644,-0.444l0.642,-0.448l0.641,-0.448l0.639,-0.451l0.638,-0.452l0.636,-0.453l0.635,-0.456l0.633,-0.458l0.632,-0.46l0.631,-0.462l0.629,-0.463l0.628,-0.465l0.627,-0.467l0.625,-0.469l0.622,-0.471l0.623,-0.473l0.621,-0.474l0.618,-0.476l0.619,-0.479l0.615,-0.479l0.615,-0.482l0.614,-0.484l0.611,-0.485l0.611,-0.487l0.609,-0.489l0.607,-0.491l0.606,-0.493l0.604,-0.494l0.602,-0.495l0.602,-0.499l0.6,-0.499l0.599,-0.502l0.596,-0.503l0.596,-0.505l0.593,-0.506l0.592,-0.509l0.591,-0.51l0.589,-0.512l0.587,-0.513l0.586,-0.516l0.585,-0.517l0.583,-0.519l0.581,-0.52l0.581,-0.523l0.578,-0.524l0.575,-0.525l0.576,-0.528l0.574,-0.529l0.571,-0.53l0.571,-0.533l0.568,-0.534l0.567,-0.536l0.566,-0.538l0.564,-0.539l0.562,-0.541l0.56,-0.542l0.559,-0.545l0.558,-0.545l0.555,-0.547l0.555,-0.55l0.553,-0.552l0.55,-0.552l0.549,-0.553l0.548,-0.557l0.546,-0.557l0.544,-0.559l0.543,-0.561l0.541,-0.562l0.539,-0.564l0.537,-0.565l0.536,-0.567l0.534,-0.569l0.533,-0.57l0.531,-0.573l0.529,-0.572l0.526,-0.575l0.527,-0.577l0.524,-0.579l0.522,-0.579l0.521,-0.582l0.519,-0.582l0.517,-0.585l0.515,-0.586l0.513,-0.587l0.512,-0.589l0.51,-0.591l0.509,-0.593l0.507,-0.593l0.504,-0.595l0.504,-0.598l0.501,-0.597l0.5,-0.6l0.498,-0.601l0.496,-0.603l0.495,-0.605l0.492,-0.605l0.49,-0.608l0.489,-0.608l0.486,-0.61l0.487,-0.614l0.483,-0.612l0.482,-0.614l0.48,-0.617l0.478,-0.617l0.477,-0.62l0.474,-0.621l0.472,-0.621l0.471,-0.624l0.469,-0.625l0.467,-0.626l0.465,-0.628l0.464,-0.629l0.461,-0.631l0.46,-0.632l0.458,-0.634l0.456,-0.634l0.454,-0.637l0.453,-0.638l0.45,-0.639l0.448,-0.64l0.446,-0.642l0.445,-0.644l0.443,-0.644l0.441,-0.646l0.44,-0.649l0.436,-0.648l0.435,-0.65l0.434,-0.652l0.431,-0.653l0.43,-0.654l0.427,-0.656l0.425,-0.656l0.424,-0.658l0.422,-0.661l0.419,-0.66l0.419,-0.663l0.415,-0.664l0.414,-0.665l0.413,-0.667l0.409,-0.666l0.408,-0.67l0.407,-0.67l0.404,-0.672l0.402,-0.673l0.399,-0.673l0.398,-0.675l0.398,-0.679l0.393,-0.677l0.392,-0.679l0.39,-0.68l0.389,-0.682l0.386,-0.684l0.384,-0.684l0.382,-0.686l0.38,-0.687l0.378,-0.687l0.376,-0.689l0.375,-0.692l0.372,-0.692l0.369,-0.693l0.368,-0.693l0.366,-0.697l0.364,-0.696l0.361,-0.698l0.361,-0.7l0.357,-0.7l0.356,-0.702l0.353,-0.702l0.351,-0.704l0.35,-0.706l0.347,-0.706l0.345,-0.708l0.343,-0.708l0.341,-0.71l0.339,-0.712l0.337,-0.712l0.334,-0.713l0.333,-0.715l0.33,-0.716l0.328,-0.716l0.327,-0.719l0.324,-0.72l0.322,-0.72l0.32,-0.721l0.318,-0.723l0.315,-0.724l0.313,-0.724l0.311,-0.725l0.31,-0.728l0.307,-0.729l0.305,-0.73l0.302,-0.729l0.3,-0.732l0.299,-0.733l0.296,-0.733l0.294,-0.735l0.292,-0.737l0.289,-0.737l0.287,-0.737l0.286,-0.74l0.283,-0.741l0.28,-0.741l0.279,-0.742l0.276,-0.744l0.275,-0.745l0.271,-0.744l0.27,-0.748l0.268,-0.748l0.265,-0.748l0.263,-0.75l0.261,-0.751l0.258,-0.752l0.256,-0.752l0.254,-0.754l0.252,-0.755l0.25,-0.756l0.247,-0.758l0.245,-0.757l0.243,-0.759l0.24,-0.76l0.238,-0.761l0.237,-0.763l0.233,-0.762l0.231,-0.764l0.23,-0.765l0.226,-0.766l0.225,-0.768l0.222,-0.767l0.22,-0.769l0.218,-0.77l0.215,-0.771l0.213,-0.772l0.21,-0.773l0.209,-0.773l0.205,-0.774l0.204,-0.777l0.201,-0.776l0.199,-0.776l0.197,-0.78l0.194,-0.78l0.192,-0.779l0.19,-0.782l0.187,-0.782l0.185,-0.782l0.182,-0.785l0.18,-0.785l0.178,-0.786l0.175,-0.787l0.173,-0.787l0.171,-0.789l0.168,-0.789l0.166,-0.792l0.163,-0.791l0.161,-0.79l0.159,-0.794l0.156,-0.795l0.154,-0.793l0.151,-0.796l0.149,-0.798l0.147,-0.797l0.144,-0.798l0.141,-0.799l0.139,-0.799l0.137,-0.802l0.134,-0.802l0.132,-0.802l0.129,-0.804l0.127,-0.803l0.125,-0.806l0.122,-0.807l0.119,-0.805l0.117,-0.808l0.115,-0.809l0.112,-0.808l0.11,-0.811l0.107,-0.811l0.104,-0.811l0.103,-0.814l0.099,-0.812l0.097,-0.815l0.095,-0.815l0.092,-0.816l0.089,-0.816l0.087,-0.817l0.085,-0.818l0.082,-0.82l0.079,-0.82l0.077,-0.82l0.075,-0.822l0.071,-0.822l0.07,-0.822l0.066,-0.824l0.064,-0.824l0.062,-0.826l0.059,-0.826l0.057,-0.841l0.027,-0.398l0.026,-0.415l0.026,-0.414l0.026,-0.415l0.024,-0.415l0.024,-0.413l0.024,-0.413l0.022,-0.416l0.022,-0.416l0.022,-0.416l0.021,-0.417l0.02,-0.414l0.019,-0.415l0.019,-0.417l0.018,-0.417l0.018,-0.415l0.016,-0.416l0.017,-0.418l0.015,-0.418l0.015,-0.416l0.014,-0.417l0.014,-0.419l0.013,-0.416l0.012,-0.418l0.012,-0.419l0.011,-0.42l0.01,-0.418l0.01,-0.415l0.008,-0.421l0.009,-0.421l0.007,-0.416l0.007,-0.421l0.007,-0.419l0.005,-0.42l0.005,-0.422l0.005,-0.417l0.003,-0.422l0.003,-0.42l0.003,-0.418l0.001,-0.423l0.001,-0.421l0.001,-0.421l-0.001,-0.421l-0.001,-0.421l-0.001,-0.423l-0.003,-0.418l-0.003,-0.421l-0.003,-0.422l-0.005,-0.417l-0.005,-0.422l-0.005,-0.419l-0.007,-0.419l-0.007,-0.422l-0.007,-0.416l-0.009,-0.421l-0.008,-0.42l-0.01,-0.416l-0.01,-0.418l-0.011,-0.42l-0.012,-0.419l-0.012,-0.417l-0.013,-0.417l-0.014,-0.419l-0.014,-0.416l-0.015,-0.417l-0.015,-0.418l-0.017,-0.418l-0.016,-0.415l-0.018,-0.416l-0.018,-0.417l-0.019,-0.417l-0.019,-0.415l-0.02,-0.414l-0.021,-0.416l-0.022,-0.417l-0.022,-0.416l-0.022,-0.415l-0.024,-0.414l-0.024,-0.412l-0.024,-0.415l-0.026,-0.415l-0.026,-0.415l-0.026,-0.414l-0.027,-0.399l-0.057,-0.841l-0.059,-0.826l-0.062,-0.826l-0.064,-0.823l-0.066,-0.824l-0.07,-0.823l-0.071,-0.822l-0.075,-0.822l-0.077,-0.82l-0.079,-0.82l-0.082,-0.819l-0.085,-0.818l-0.087,-0.818l-0.089,-0.816l-0.092,-0.815l-0.095,-0.816l-0.097,-0.814l-0.099,-0.813l-0.103,-0.813l-0.104,-0.812l-0.107,-0.81l-0.11,-0.811l-0.112,-0.809l-0.115,-0.809l-0.117,-0.807l-0.119,-0.806l-0.122,-0.807l-0.125,-0.806l-0.127,-0.803l-0.129,-0.804l-0.132,-0.802l-0.134,-0.801l-0.137,-0.802l-0.139,-0.8l-0.142,-0.799l-0.143,-0.797l-0.147,-0.798l-0.149,-0.798l-0.151,-0.796l-0.154,-0.793l-0.156,-0.795l-0.159,-0.793l-0.161,-0.791l-0.163,-0.791l-0.166,-0.792l-0.168,-0.789l-0.171,-0.789l-0.173,-0.787l-0.175,-0.787l-0.178,-0.785l-0.18,-0.785l-0.182,-0.786l-0.185,-0.781l-0.187,-0.782l-0.19,-0.782l-0.192,-0.78l-0.194,-0.78l-0.197,-0.779l-0.199,-0.777l-0.201,-0.776l-0.204,-0.777l-0.205,-0.774l-0.209,-0.773l-0.21,-0.773l-0.213,-0.772l-0.215,-0.77l-0.218,-0.771l-0.22,-0.769l-0.222,-0.767l-0.225,-0.767l-0.226,-0.767l-0.23,-0.765l-0.231,-0.763l-0.233,-0.763l-0.237,-0.763l-0.238,-0.76l-0.24,-0.761l-0.243,-0.759l-0.245,-0.757l-0.247,-0.758l-0.25,-0.755l-0.252,-0.756l-0.254,-0.754l-0.256,-0.752l-0.258,-0.752l-0.261,-0.751l-0.263,-0.749l-0.265,-0.749l-0.268,-0.748l-0.27,-0.747l-0.271,-0.745l-0.275,-0.745l-0.276,-0.744l-0.279,-0.742l-0.28,-0.741l-0.283,-0.741l-0.286,-0.739l-0.287,-0.738l-0.289,-0.737l-0.292,-0.737l-0.294,-0.734l-0.296,-0.733l-0.299,-0.734l-0.3,-0.731l-0.302,-0.73l-0.305,-0.729l-0.307,-0.73l-0.31,-0.727l-0.311,-0.726l-0.313,-0.724l-0.316,-0.724l-0.317,-0.723l-0.32,-0.721l-0.322,-0.72l-0.324,-0.72l-0.327,-0.719l-0.328,-0.716l-0.33,-0.716l-0.333,-0.714l-0.334,-0.714l-0.337,-0.712l-0.339,-0.711l-0.341,-0.711l-0.343,-0.708l-0.345,-0.707l-0.347,-0.707l-0.35,-0.706l-0.351,-0.704l-0.353,-0.702l-0.356,-0.702l-0.357,-0.699l-0.361,-0.701l-0.361,-0.698l-0.364,-0.696l-0.366,-0.696l-0.368,-0.694l-0.369,-0.692l-0.372,-0.692l-0.375,-0.692l-0.376,-0.689l-0.378,-0.688l-0.38,-0.687l-0.382,-0.686l-0.384,-0.684l-0.386,-0.683l-0.389,-0.682l-0.39,-0.681l-0.392,-0.679l-0.394,-0.677l-0.396,-0.678l-0.399,-0.676l-0.399,-0.673l-0.402,-0.673l-0.404,-0.671l-0.407,-0.671l-0.408,-0.669l-0.41,-0.667l-0.412,-0.667l-0.414,-0.665l-0.415,-0.663l-0.419,-0.663l-0.419,-0.661l-0.422,-0.66l-0.424,-0.659l-0.425,-0.656l-0.427,-0.656l-0.43,-0.654l-0.431,-0.653l-0.434,-0.652l-0.435,-0.65l-0.436,-0.648l-0.44,-0.648l-0.441,-0.646l-0.443,-0.645l-0.445,-0.644l-0.446,-0.641l-0.449,-0.641l-0.449,-0.639l-0.453,-0.637l-0.454,-0.637l-0.456,-0.635l-0.458,-0.634l-0.46,-0.632l-0.461,-0.63l-0.464,-0.63l-0.465,-0.628l-0.467,-0.626l-0.469,-0.625l-0.471,-0.623l-0.472,-0.622l-0.475,-0.621l-0.476,-0.619l-0.478,-0.617l-0.48,-0.617l-0.482,-0.615l-0.483,-0.613l-0.486,-0.612l-0.487,-0.61l-0.489,-0.609l-0.491,-0.608l-0.492,-0.605l-0.494,-0.604l-0.497,-0.604l-0.497,-0.6l-0.5,-0.6l-0.501,-0.598l-0.504,-0.598l-0.504,-0.595l-0.507,-0.593l-0.508,-0.593l-0.511,-0.59l-0.512,-0.59l-0.512,-0.586l-0.516,-0.587l-0.518,-0.585l-0.518,-0.582l-0.521,-0.581l-0.522,-0.58l-0.524,-0.579l-0.526,-0.576l-0.527,-0.575l-0.529,-0.573l-0.531,-0.573l-0.533,-0.57l-0.534,-0.569l-0.536,-0.567l-0.537,-0.565l-0.539,-0.564l-0.541,-0.562l-0.543,-0.56l-0.544,-0.56l-0.546,-0.557l-0.548,-0.556l-0.549,-0.554l-0.55,-0.552l-0.553,-0.551l-0.555,-0.55l-0.555,-0.547l-0.557,-0.546l-0.559,-0.544l-0.561,-0.543l-0.563,-0.541l-0.563,-0.539l-0.566,-0.537l-0.567,-0.536l-0.568,-0.534l-0.571,-0.533l-0.572,-0.531l-0.573,-0.529l-0.575,-0.527l-0.576,-0.526l-0.579,-0.524l-0.58,-0.523l-0.581,-0.52l-0.583,-0.519l-0.585,-0.517l-0.586,-0.515l-0.587,-0.514l-0.589,-0.512l-0.591,-0.51l-0.592,-0.509l-0.593,-0.506l-0.595,-0.504l-0.597,-0.504l-0.599,-0.502l-0.6,-0.499l-0.601,-0.498l-0.603,-0.496l-0.604,-0.494l-0.606,-0.493l-0.607,-0.491l-0.609,-0.489l-0.61,-0.487l-0.612,-0.485l-0.614,-0.484l-0.614,-0.481l-0.616,-0.48l-0.618,-0.478l-0.619,-0.477l-0.621,-0.474l-0.622,-0.473l-0.623,-0.47l-0.625,-0.469l-0.627,-0.467l-0.628,-0.466l-0.629,-0.463l-0.63,-0.462l-0.632,-0.459l-0.634,-0.458l-0.635,-0.456l-0.636,-0.454l-0.638,-0.452l-0.639,-0.451l-0.641,-0.448l-0.642,-0.447l-0.643,-0.445l-0.645,-0.442l-0.646,-0.441l-0.648,-0.439l-0.648,-0.437l-0.651,-0.436l-0.651,-0.433l-0.653,-0.431l-0.654,-0.43l-0.656,-0.427l-0.657,-0.426l-0.659,-0.424l-0.659,-0.421l-0.661,-0.42l-0.662,-0.417l-0.664,-0.416l-0.666,-0.415l-0.666,-0.412l-0.667,-0.409l-0.669,-0.408l-0.67,-0.406l-0.672,-0.405l-0.673,-0.402l-0.674,-0.4l-0.675,-0.398l-0.677,-0.396l-0.678,-0.394l-0.68,-0.393l-0.681,-0.39l-0.681,-0.388l-0.683,-0.386l-0.685,-0.384l-0.685,-0.382l-0.687,-0.38l-0.688,-0.379l-0.69,-0.376l-0.69,-0.374l-0.692,-0.372l-0.693,-0.369l-0.694,-0.368l-0.696,-0.366l-0.697,-0.364l-0.698,-0.362l-0.699,-0.36l-0.701,-0.357l-0.701,-0.355l-0.703,-0.354l-0.704,-0.351l-0.705,-0.35l-0.707,-0.347l-0.707,-0.345l-0.709,-0.343l-0.71,-0.341l-0.711,-0.339l-0.712,-0.337l-0.714,-0.335l-0.714,-0.332l-0.716,-0.331l-0.717,-0.328l-0.718,-0.326l-0.719,-0.324l-0.721,-0.322l-0.722,-0.32l-0.722,-0.318l-0.724,-0.315l-0.725,-0.314l-0.726,-0.311l-0.727,-0.309l-0.728,-0.307l-0.73,-0.305l-0.73,-0.302l-0.732,-0.301l-0.733,-0.298l-0.733,-0.296l-0.735,-0.294l-0.736,-0.292l-0.737,-0.289l-0.738,-0.288l-0.74,-0.285l-0.74,-0.283l-0.741,-0.281l-0.743,-0.278l-0.743,-0.277l-0.745,-0.274l-0.745,-0.272l-0.747,-0.269l-0.748,-0.268l-0.749,-0.265l-0.749,-0.263l-0.751,-0.261l-0.752,-0.258l-0.753,-0.257l-0.754,-0.254l-0.755,-0.252l-0.756,-0.249l-0.757,-0.247l-0.758,-0.245l-0.759,-0.243l-0.76,-0.241l-0.761,-0.238l-0.762,-0.236l-0.763,-0.233l-0.764,-0.232l-0.765,-0.229l-0.766,-0.227l-0.767,-0.224l-0.768,-0.222l-0.769,-0.22l-0.769,-0.218l-0.771,-0.215l-0.772,-0.213l-0.773,-0.21l-0.774,-0.209l-0.774,-0.206l-0.776,-0.203l-0.777,-0.202l-0.777,-0.199l-0.778,-0.196l-0.78,-0.195l-0.78,-0.191l-0.781,-0.19l-0.783,-0.187l-0.783,-0.185l-0.784,-0.182l-0.785,-0.181l-0.786,-0.177l-0.786,-0.176l-0.788,-0.173l-0.788,-0.17l-0.79,-0.168l-0.79,-0.166l-0.792,-0.163l-0.792,-0.161l-0.793,-0.159l-0.794,-0.156l-0.794,-0.154l-0.796,-0.151l-0.797,-0.149l-0.797,-0.147l-0.798,-0.144l-0.8,-0.141l-0.8,-0.139l-0.8,-0.137l-0.802,-0.134l-0.803,-0.132l-0.803,-0.13l-0.804,-0.127l-0.805,-0.124l-0.806,-0.122l-0.807,-0.12l-0.808,-0.117l-0.808,-0.114l-0.81,-0.112l-0.81,-0.11l-0.811,-0.107l-0.811,-0.105l-0.813,-0.102l-0.813,-0.099l-0.814,-0.097l-0.815,-0.095l-0.816,-0.092l-0.817,-0.09l-0.817,-0.087l-0.818,-0.084l-0.819,-0.082l-0.82,-0.08l-0.821,-0.077l-0.821,-0.074l-0.822,-0.072l-0.823,-0.069l-0.824,-0.067l-0.824,-0.064l-0.825,-0.061l-0.826,-0.059l-0.842,-0.058l-0.399,-0.026l-0.414,-0.027l-0.414,-0.026l-0.414,-0.025l-0.414,-0.025l-0.415,-0.024l-0.414,-0.023l-0.415,-0.023l-0.416,-0.022l-0.415,-0.021l-0.416,-0.021l-0.415,-0.02l-0.416,-0.019l-0.416,-0.019l-0.417,-0.018l-0.416,-0.018l-0.417,-0.017l-0.416,-0.016l-0.417,-0.015l-0.418,-0.015l-0.417,-0.015l-0.418,-0.013l-0.418,-0.013l-0.417,-0.012l-0.419,-0.012l-0.418,-0.011l-0.418,-0.01l-0.419,-0.01l-0.419,-0.009l-0.419,-0.008l-0.419,-0.008l-0.419,-0.007l-0.42,-0.006l-0.42,-0.006l-0.42,-0.005l-0.42,-0.004l-0.42,-0.004l-0.42,-0.003l-0.421,-0.002l-0.421,-0.002l-0.421,-0.001l-0.421,0l-0.421,0Z"/></svg>