<?xml version="1.0" encoding="UTF-8" standalone="no"?><!DOCTYPE svg PUBLIC "-//W3C//DTD SVG 1.1//EN" "http://www.w3.org/Graphics/SVG/1.1/DTD/svg11.dtd"><svg width="100%" height="100%" viewBox="0 0 879 516" version="1.1" xmlns="http://www.w3.org/2000/svg" xmlns:xlink="http://www.w3.org/1999/xlink" xml:space="preserve" xmlns:serif="http://www.serif.com/" style="fill-rule:evenodd;clip-rule:evenodd;stroke-linecap:round;stroke-linejoin:round;stroke-miterlimit:1.5;"><path id="Mouse" d="M590.417,156.25c0,-83.477 -67.773,-151.25 -151.25,-151.25c-83.477,0 -151.25,67.773 -151.25,151.25l0,203.333c0,83.477 67.773,151.25 151.25,151.25c83.477,0 151.25,-67.773 151.25,-151.25l0,-203.333Z" style="fill:none;stroke:#fff;stroke-width:10px;"/><path id="Left-Mouse-Button" serif:id="Left Mouse Button" d="M401.348,99.221c-0.002,0.507 0.115,96.653 0.115,96.653l-96.574,-0.313l0,-44.783c0,-68.607 63.31,-129.9 128.802,-129.9l-0.048,45.692c-13.799,0.167 -32.228,16.783 -32.295,32.651Z" style="fill:#fff;"/><path id="Scroll-Wheel" serif:id="Scroll Wheel" d="M460.833,102.75c0,-11.958 -9.708,-21.667 -21.666,-21.667c-11.958,0 -21.667,9.709 -21.667,21.667l0,61.667c0,11.958 9.709,21.666 21.667,21.666c11.958,0 21.666,-9.708 21.666,-21.666l0,-61.667Z" style="fill:none;stroke:#fff;stroke-width:10px;"/><path id="Arrow-Left" serif:id="Arrow Left" d="M184.583,273.333l0,-32.771l-132.5,0l0,-35.562l-52.083,52.083l51.521,51.521l0.482,-35.271l132.58,0Z" style="fill:#fff;"/><path d="M52.083,240.562l132.5,0l0,32.771l-132.58,0l-0.482,35.271l-51.521,-51.521l52.083,-52.083l0,35.562Zm-37.941,16.521l27.704,27.704l0.293,-21.454l132.444,0l0,-12.77l-132.5,0l0,-21.421l-27.941,27.941Z" style="fill:#fff;"/><path id="Arrow-Right" serif:id="Arrow Right" d="M693.75,273.333l0,-32.771l132.5,0l0,-35.562l52.083,52.083l-51.521,51.521l-0.482,-35.271l-132.58,0Z" style="fill:#fff;"/><path d="M878.333,257.083l-51.521,51.521l-0.482,-35.271l-132.58,0l0,-32.771l132.5,0l0,-35.562l52.083,52.083Zm-42.083,-6.52l-132.5,0l0,12.77l132.444,0l0.294,21.454l27.703,-27.704l-27.941,-27.941l0,21.421Z" style="fill:#fff;"/></svg>